<svg width="334" height="358" viewBox="0 0 334 358" fill="none" xmlns="http://www.w3.org/2000/svg">
<g clip-path="url(#clip0_1_229)">
<rect x="44.5" y="4" width="16" height="16" rx="3" fill="#1873EB"/>
<path d="M75.7012 17H74.0605V12.4951H69.4531V17H67.8193V7.00586H69.4531V11.0938H74.0605V7.00586H75.7012V17ZM78.333 17V7.00586H79.9668V17H78.333ZM88.375 14.2861C88.375 15.1748 88.0537 15.8721 87.4111 16.3779C86.7686 16.8838 85.8822 17.1367 84.752 17.1367C83.6217 17.1367 82.6966 16.9613 81.9766 16.6104V15.0654C82.4323 15.2796 82.9154 15.4482 83.4258 15.5713C83.9408 15.6943 84.4193 15.7559 84.8613 15.7559C85.5085 15.7559 85.9847 15.6328 86.29 15.3867C86.5999 15.1406 86.7549 14.8102 86.7549 14.3955C86.7549 14.0218 86.6136 13.7051 86.3311 13.4453C86.0485 13.1855 85.4652 12.8779 84.5811 12.5225C83.6696 12.1533 83.027 11.7318 82.6533 11.2578C82.2796 10.7839 82.0928 10.2142 82.0928 9.54883C82.0928 8.71484 82.389 8.05859 82.9814 7.58008C83.5739 7.10156 84.3691 6.8623 85.3672 6.8623C86.3242 6.8623 87.2767 7.07194 88.2246 7.49121L87.7051 8.82422C86.8164 8.45052 86.0234 8.26367 85.3262 8.26367C84.7975 8.26367 84.3965 8.37988 84.123 8.6123C83.8496 8.84017 83.7129 9.14323 83.7129 9.52148C83.7129 9.78125 83.7676 10.0046 83.877 10.1914C83.9863 10.3737 84.1663 10.5469 84.417 10.7109C84.6676 10.875 85.1188 11.0915 85.7705 11.3604C86.5042 11.6657 87.042 11.9505 87.3838 12.2148C87.7256 12.4792 87.9762 12.7777 88.1357 13.1104C88.2952 13.443 88.375 13.835 88.375 14.2861ZM93.7617 17H92.1279V8.40723H89.1885V7.00586H96.7012V8.40723H93.7617V17ZM107.112 11.9893C107.112 13.6162 106.704 14.8809 105.889 15.7832C105.077 16.6855 103.927 17.1367 102.437 17.1367C100.928 17.1367 99.7682 16.6901 98.957 15.7969C98.1504 14.8991 97.7471 13.6253 97.7471 11.9756C97.7471 10.3258 98.1527 9.05892 98.9639 8.1748C99.7796 7.29069 100.942 6.84863 102.45 6.84863C103.936 6.84863 105.084 7.29753 105.896 8.19531C106.707 9.0931 107.112 10.3577 107.112 11.9893ZM99.4834 11.9893C99.4834 13.2197 99.7318 14.154 100.229 14.792C100.725 15.4255 101.461 15.7422 102.437 15.7422C103.407 15.7422 104.139 15.4277 104.631 14.7988C105.128 14.1699 105.376 13.2334 105.376 11.9893C105.376 10.7633 105.13 9.83366 104.638 9.2002C104.15 8.56673 103.421 8.25 102.45 8.25C101.47 8.25 100.73 8.56673 100.229 9.2002C99.7318 9.83366 99.4834 10.7633 99.4834 11.9893ZM110.893 11.6543H112.027C112.788 11.6543 113.34 11.513 113.682 11.2305C114.023 10.9479 114.194 10.5286 114.194 9.97266C114.194 9.40755 114.01 9.00195 113.641 8.75586C113.271 8.50977 112.715 8.38672 111.973 8.38672H110.893V11.6543ZM110.893 13.0078V17H109.259V7.00586H112.082C113.372 7.00586 114.326 7.2474 114.946 7.73047C115.566 8.21354 115.876 8.94271 115.876 9.91797C115.876 11.1621 115.229 12.0485 113.935 12.5771L116.758 17H114.898L112.506 13.0078H110.893ZM118.214 17V7.00586H119.848V17H118.214ZM126.745 8.26367C125.806 8.26367 125.068 8.59635 124.53 9.26172C123.993 9.92708 123.724 10.8454 123.724 12.0166C123.724 13.2425 123.981 14.1699 124.496 14.7988C125.016 15.4277 125.765 15.7422 126.745 15.7422C127.169 15.7422 127.579 15.7012 127.976 15.6191C128.372 15.5326 128.785 15.4232 129.213 15.291V16.6924C128.429 16.9886 127.54 17.1367 126.547 17.1367C125.084 17.1367 123.961 16.6947 123.177 15.8105C122.393 14.9219 122.001 13.6527 122.001 12.0029C122.001 10.9639 122.19 10.0547 122.568 9.27539C122.951 8.49609 123.503 7.89909 124.223 7.48438C124.943 7.06966 125.788 6.8623 126.759 6.8623C127.78 6.8623 128.723 7.0765 129.589 7.50488L129.001 8.86523C128.664 8.70573 128.306 8.56673 127.928 8.44824C127.554 8.3252 127.16 8.26367 126.745 8.26367ZM137.566 17L136.568 14.2246H132.747L131.77 17H130.047L133.786 6.96484H135.563L139.303 17H137.566ZM136.138 12.8164L135.201 10.0957C135.133 9.91341 135.037 9.6263 134.914 9.23438C134.796 8.84245 134.714 8.55534 134.668 8.37305C134.545 8.93359 134.365 9.54655 134.128 10.2119L133.226 12.8164H136.138ZM140.622 17V7.00586H142.256V15.5986H146.487V17H140.622Z" fill="#4F4F4F"/>
</g>
<g clip-path="url(#clip1_1_229)">
<rect x="163.5" y="4" width="16" height="16" rx="3" fill="#9C4FFF"/>
<path d="M188.439 17H186.819V7.00586H192.459V8.38672H188.439V11.5107H192.206V12.8984H188.439V17ZM203.144 11.9893C203.144 13.6162 202.736 14.8809 201.92 15.7832C201.109 16.6855 199.958 17.1367 198.468 17.1367C196.959 17.1367 195.799 16.6901 194.988 15.7969C194.182 14.8991 193.778 13.6253 193.778 11.9756C193.778 10.3258 194.184 9.05892 194.995 8.1748C195.811 7.29069 196.973 6.84863 198.481 6.84863C199.967 6.84863 201.116 7.29753 201.927 8.19531C202.738 9.0931 203.144 10.3577 203.144 11.9893ZM195.515 11.9893C195.515 13.2197 195.763 14.154 196.26 14.792C196.757 15.4255 197.493 15.7422 198.468 15.7422C199.438 15.7422 200.17 15.4277 200.662 14.7988C201.159 14.1699 201.407 13.2334 201.407 11.9893C201.407 10.7633 201.161 9.83366 200.669 9.2002C200.181 8.56673 199.452 8.25 198.481 8.25C197.502 8.25 196.761 8.56673 196.26 9.2002C195.763 9.83366 195.515 10.7633 195.515 11.9893ZM206.924 11.6543H208.059C208.82 11.6543 209.371 11.513 209.713 11.2305C210.055 10.9479 210.226 10.5286 210.226 9.97266C210.226 9.40755 210.041 9.00195 209.672 8.75586C209.303 8.50977 208.747 8.38672 208.004 8.38672H206.924V11.6543ZM206.924 13.0078V17H205.29V7.00586H208.113C209.403 7.00586 210.358 7.2474 210.978 7.73047C211.597 8.21354 211.907 8.94271 211.907 9.91797C211.907 11.1621 211.26 12.0485 209.966 12.5771L212.789 17H210.93L208.537 13.0078H206.924ZM219.898 17H214.245V7.00586H219.898V8.38672H215.879V11.1074H219.646V12.4746H215.879V15.6123H219.898V17ZM226.317 8.26367C225.379 8.26367 224.64 8.59635 224.103 9.26172C223.565 9.92708 223.296 10.8454 223.296 12.0166C223.296 13.2425 223.553 14.1699 224.068 14.7988C224.588 15.4277 225.338 15.7422 226.317 15.7422C226.741 15.7422 227.151 15.7012 227.548 15.6191C227.944 15.5326 228.357 15.4232 228.785 15.291V16.6924C228.001 16.9886 227.113 17.1367 226.119 17.1367C224.656 17.1367 223.533 16.6947 222.749 15.8105C221.965 14.9219 221.573 13.6527 221.573 12.0029C221.573 10.9639 221.762 10.0547 222.141 9.27539C222.523 8.49609 223.075 7.89909 223.795 7.48438C224.515 7.06966 225.36 6.8623 226.331 6.8623C227.352 6.8623 228.295 7.0765 229.161 7.50488L228.573 8.86523C228.236 8.70573 227.878 8.56673 227.5 8.44824C227.126 8.3252 226.732 8.26367 226.317 8.26367ZM237.139 17L236.141 14.2246H232.319L231.342 17H229.619L233.358 6.96484H235.136L238.875 17H237.139ZM235.71 12.8164L234.773 10.0957C234.705 9.91341 234.609 9.6263 234.486 9.23438C234.368 8.84245 234.286 8.55534 234.24 8.37305C234.117 8.93359 233.937 9.54655 233.7 10.2119L232.798 12.8164H235.71ZM245.957 14.2861C245.957 15.1748 245.636 15.8721 244.993 16.3779C244.351 16.8838 243.464 17.1367 242.334 17.1367C241.204 17.1367 240.279 16.9613 239.559 16.6104V15.0654C240.014 15.2796 240.497 15.4482 241.008 15.5713C241.523 15.6943 242.001 15.7559 242.443 15.7559C243.09 15.7559 243.567 15.6328 243.872 15.3867C244.182 15.1406 244.337 14.8102 244.337 14.3955C244.337 14.0218 244.196 13.7051 243.913 13.4453C243.631 13.1855 243.047 12.8779 242.163 12.5225C241.252 12.1533 240.609 11.7318 240.235 11.2578C239.862 10.7839 239.675 10.2142 239.675 9.54883C239.675 8.71484 239.971 8.05859 240.563 7.58008C241.156 7.10156 241.951 6.8623 242.949 6.8623C243.906 6.8623 244.859 7.07194 245.807 7.49121L245.287 8.82422C244.398 8.45052 243.605 8.26367 242.908 8.26367C242.38 8.26367 241.979 8.37988 241.705 8.6123C241.432 8.84017 241.295 9.14323 241.295 9.52148C241.295 9.78125 241.35 10.0046 241.459 10.1914C241.568 10.3737 241.748 10.5469 241.999 10.7109C242.25 10.875 242.701 11.0915 243.353 11.3604C244.086 11.6657 244.624 11.9505 244.966 12.2148C245.308 12.4792 245.558 12.7777 245.718 13.1104C245.877 13.443 245.957 13.835 245.957 14.2861ZM251.344 17H249.71V8.40723H246.771V7.00586H254.283V8.40723H251.344V17ZM261.475 17H255.821V7.00586H261.475V8.38672H257.455V11.1074H261.222V12.4746H257.455V15.6123H261.475V17ZM271.77 11.9072C271.77 13.557 271.312 14.8193 270.396 15.6943C269.479 16.5648 268.16 17 266.438 17H263.642V7.00586H266.731C268.322 7.00586 269.559 7.43424 270.443 8.29102C271.327 9.14779 271.77 10.3532 271.77 11.9072ZM270.047 11.9619C270.047 9.56934 268.928 8.37305 266.69 8.37305H265.275V15.626H266.438C268.844 15.626 270.047 14.4046 270.047 11.9619Z" fill="#4F4F4F"/>
</g>
<path d="M3.42188 44.3105C4.20312 44.3105 4.82227 44.4922 5.2793 44.8555C5.73633 45.2188 5.96484 45.7207 5.96484 46.3613C5.96484 46.7832 5.83398 47.168 5.57227 47.5156C5.31055 47.8633 4.89258 48.1797 4.31836 48.4648C5.01367 48.7969 5.50781 49.1465 5.80078 49.5137C6.09375 49.877 6.24023 50.2988 6.24023 50.7793C6.24023 51.4902 5.99219 52.0586 5.49609 52.4844C5 52.9062 4.32031 53.1172 3.45703 53.1172C2.54297 53.1172 1.83984 52.918 1.34766 52.5195C0.855469 52.1172 0.609375 51.5488 0.609375 50.8145C0.609375 49.834 1.20703 49.0703 2.40234 48.5234C1.86328 48.2188 1.47656 47.8906 1.24219 47.5391C1.00781 47.1836 0.890625 46.7871 0.890625 46.3496C0.890625 45.7285 1.11914 45.2344 1.57617 44.8672C2.03711 44.4961 2.65234 44.3105 3.42188 44.3105ZM1.57031 50.8379C1.57031 51.3066 1.73242 51.6719 2.05664 51.9336C2.38477 52.1953 2.84375 52.3262 3.43359 52.3262C4.01562 52.3262 4.46875 52.1895 4.79297 51.916C5.11719 51.6426 5.2793 51.2676 5.2793 50.791C5.2793 50.4121 5.12695 50.0762 4.82227 49.7832C4.51758 49.4863 3.98633 49.1992 3.22852 48.9219C2.64648 49.1719 2.22461 49.4492 1.96289 49.7539C1.70117 50.0547 1.57031 50.416 1.57031 50.8379ZM3.41016 45.1016C2.92188 45.1016 2.53906 45.2188 2.26172 45.4531C1.98438 45.6875 1.8457 46 1.8457 46.3906C1.8457 46.75 1.96094 47.0586 2.19141 47.3164C2.42188 47.5742 2.84766 47.832 3.46875 48.0898C4.02734 47.8555 4.42188 47.6035 4.65234 47.334C4.88672 47.0645 5.00391 46.75 5.00391 46.3906C5.00391 45.9961 4.86133 45.6836 4.57617 45.4531C4.29492 45.2188 3.90625 45.1016 3.41016 45.1016ZM13.1309 48.7051C13.1309 50.1855 12.8965 51.291 12.4277 52.0215C11.9629 52.752 11.25 53.1172 10.2891 53.1172C9.36719 53.1172 8.66602 52.7441 8.18555 51.998C7.70508 51.248 7.46484 50.1504 7.46484 48.7051C7.46484 47.2129 7.69727 46.1055 8.16211 45.3828C8.62695 44.6602 9.33594 44.2988 10.2891 44.2988C11.2188 44.2988 11.9238 44.6758 12.4043 45.4297C12.8887 46.1836 13.1309 47.2754 13.1309 48.7051ZM8.44922 48.7051C8.44922 49.9512 8.5957 50.8594 8.88867 51.4297C9.18164 51.9961 9.64844 52.2793 10.2891 52.2793C10.9375 52.2793 11.4062 51.9922 11.6953 51.418C11.9883 50.8398 12.1348 49.9355 12.1348 48.7051C12.1348 47.4746 11.9883 46.5742 11.6953 46.0039C11.4062 45.4297 10.9375 45.1426 10.2891 45.1426C9.64844 45.1426 9.18164 45.4258 8.88867 45.9922C8.5957 46.5547 8.44922 47.459 8.44922 48.7051ZM19.998 48.7051C19.998 50.1855 19.7637 51.291 19.2949 52.0215C18.8301 52.752 18.1172 53.1172 17.1562 53.1172C16.2344 53.1172 15.5332 52.7441 15.0527 51.998C14.5723 51.248 14.332 50.1504 14.332 48.7051C14.332 47.2129 14.5645 46.1055 15.0293 45.3828C15.4941 44.6602 16.2031 44.2988 17.1562 44.2988C18.0859 44.2988 18.791 44.6758 19.2715 45.4297C19.7559 46.1836 19.998 47.2754 19.998 48.7051ZM15.3164 48.7051C15.3164 49.9512 15.4629 50.8594 15.7559 51.4297C16.0488 51.9961 16.5156 52.2793 17.1562 52.2793C17.8047 52.2793 18.2734 51.9922 18.5625 51.418C18.8555 50.8398 19.002 49.9355 19.002 48.7051C19.002 47.4746 18.8555 46.5742 18.5625 46.0039C18.2734 45.4297 17.8047 45.1426 17.1562 45.1426C16.5156 45.1426 16.0488 45.4258 15.7559 45.9922C15.4629 46.5547 15.3164 47.459 15.3164 48.7051ZM26.8652 48.7051C26.8652 50.1855 26.6309 51.291 26.1621 52.0215C25.6973 52.752 24.9844 53.1172 24.0234 53.1172C23.1016 53.1172 22.4004 52.7441 21.9199 51.998C21.4395 51.248 21.1992 50.1504 21.1992 48.7051C21.1992 47.2129 21.4316 46.1055 21.8965 45.3828C22.3613 44.6602 23.0703 44.2988 24.0234 44.2988C24.9531 44.2988 25.6582 44.6758 26.1387 45.4297C26.623 46.1836 26.8652 47.2754 26.8652 48.7051ZM22.1836 48.7051C22.1836 49.9512 22.3301 50.8594 22.623 51.4297C22.916 51.9961 23.3828 52.2793 24.0234 52.2793C24.6719 52.2793 25.1406 51.9922 25.4297 51.418C25.7227 50.8398 25.8691 49.9355 25.8691 48.7051C25.8691 47.4746 25.7227 46.5742 25.4297 46.0039C25.1406 45.4297 24.6719 45.1426 24.0234 45.1426C23.3828 45.1426 22.916 45.4258 22.623 45.9922C22.3301 46.5547 22.1836 47.459 22.1836 48.7051ZM33.7324 48.7051C33.7324 50.1855 33.498 51.291 33.0293 52.0215C32.5645 52.752 31.8516 53.1172 30.8906 53.1172C29.9688 53.1172 29.2676 52.7441 28.7871 51.998C28.3066 51.248 28.0664 50.1504 28.0664 48.7051C28.0664 47.2129 28.2988 46.1055 28.7637 45.3828C29.2285 44.6602 29.9375 44.2988 30.8906 44.2988C31.8203 44.2988 32.5254 44.6758 33.0059 45.4297C33.4902 46.1836 33.7324 47.2754 33.7324 48.7051ZM29.0508 48.7051C29.0508 49.9512 29.1973 50.8594 29.4902 51.4297C29.7832 51.9961 30.25 52.2793 30.8906 52.2793C31.5391 52.2793 32.0078 51.9922 32.2969 51.418C32.5898 50.8398 32.7363 49.9355 32.7363 48.7051C32.7363 47.4746 32.5898 46.5742 32.2969 46.0039C32.0078 45.4297 31.5391 45.1426 30.8906 45.1426C30.25 45.1426 29.7832 45.4258 29.4902 45.9922C29.1973 46.5547 29.0508 47.459 29.0508 48.7051Z" fill="black" fill-opacity="0.7"/>
<path d="M54 48.5H318" stroke="#D3D3D4"/>
<path d="M1.66992 100L5.2207 92.3301H0.550781V91.4336H6.25195V92.2129L2.74805 100H1.66992ZM13.1309 95.7051C13.1309 97.1855 12.8965 98.291 12.4277 99.0215C11.9629 99.752 11.25 100.117 10.2891 100.117C9.36719 100.117 8.66602 99.7441 8.18555 98.998C7.70508 98.248 7.46484 97.1504 7.46484 95.7051C7.46484 94.2129 7.69727 93.1055 8.16211 92.3828C8.62695 91.6602 9.33594 91.2988 10.2891 91.2988C11.2188 91.2988 11.9238 91.6758 12.4043 92.4297C12.8887 93.1836 13.1309 94.2754 13.1309 95.7051ZM8.44922 95.7051C8.44922 96.9512 8.5957 97.8594 8.88867 98.4297C9.18164 98.9961 9.64844 99.2793 10.2891 99.2793C10.9375 99.2793 11.4062 98.9922 11.6953 98.418C11.9883 97.8398 12.1348 96.9355 12.1348 95.7051C12.1348 94.4746 11.9883 93.5742 11.6953 93.0039C11.4062 92.4297 10.9375 92.1426 10.2891 92.1426C9.64844 92.1426 9.18164 92.4258 8.88867 92.9922C8.5957 93.5547 8.44922 94.459 8.44922 95.7051ZM19.998 95.7051C19.998 97.1855 19.7637 98.291 19.2949 99.0215C18.8301 99.752 18.1172 100.117 17.1562 100.117C16.2344 100.117 15.5332 99.7441 15.0527 98.998C14.5723 98.248 14.332 97.1504 14.332 95.7051C14.332 94.2129 14.5645 93.1055 15.0293 92.3828C15.4941 91.6602 16.2031 91.2988 17.1562 91.2988C18.0859 91.2988 18.791 91.6758 19.2715 92.4297C19.7559 93.1836 19.998 94.2754 19.998 95.7051ZM15.3164 95.7051C15.3164 96.9512 15.4629 97.8594 15.7559 98.4297C16.0488 98.9961 16.5156 99.2793 17.1562 99.2793C17.8047 99.2793 18.2734 98.9922 18.5625 98.418C18.8555 97.8398 19.002 96.9355 19.002 95.7051C19.002 94.4746 18.8555 93.5742 18.5625 93.0039C18.2734 92.4297 17.8047 92.1426 17.1562 92.1426C16.5156 92.1426 16.0488 92.4258 15.7559 92.9922C15.4629 93.5547 15.3164 94.459 15.3164 95.7051ZM26.8652 95.7051C26.8652 97.1855 26.6309 98.291 26.1621 99.0215C25.6973 99.752 24.9844 100.117 24.0234 100.117C23.1016 100.117 22.4004 99.7441 21.9199 98.998C21.4395 98.248 21.1992 97.1504 21.1992 95.7051C21.1992 94.2129 21.4316 93.1055 21.8965 92.3828C22.3613 91.6602 23.0703 91.2988 24.0234 91.2988C24.9531 91.2988 25.6582 91.6758 26.1387 92.4297C26.623 93.1836 26.8652 94.2754 26.8652 95.7051ZM22.1836 95.7051C22.1836 96.9512 22.3301 97.8594 22.623 98.4297C22.916 98.9961 23.3828 99.2793 24.0234 99.2793C24.6719 99.2793 25.1406 98.9922 25.4297 98.418C25.7227 97.8398 25.8691 96.9355 25.8691 95.7051C25.8691 94.4746 25.7227 93.5742 25.4297 93.0039C25.1406 92.4297 24.6719 92.1426 24.0234 92.1426C23.3828 92.1426 22.916 92.4258 22.623 92.9922C22.3301 93.5547 22.1836 94.459 22.1836 95.7051ZM33.7324 95.7051C33.7324 97.1855 33.498 98.291 33.0293 99.0215C32.5645 99.752 31.8516 100.117 30.8906 100.117C29.9688 100.117 29.2676 99.7441 28.7871 98.998C28.3066 98.248 28.0664 97.1504 28.0664 95.7051C28.0664 94.2129 28.2988 93.1055 28.7637 92.3828C29.2285 91.6602 29.9375 91.2988 30.8906 91.2988C31.8203 91.2988 32.5254 91.6758 33.0059 92.4297C33.4902 93.1836 33.7324 94.2754 33.7324 95.7051ZM29.0508 95.7051C29.0508 96.9512 29.1973 97.8594 29.4902 98.4297C29.7832 98.9961 30.25 99.2793 30.8906 99.2793C31.5391 99.2793 32.0078 98.9922 32.2969 98.418C32.5898 97.8398 32.7363 96.9355 32.7363 95.7051C32.7363 94.4746 32.5898 93.5742 32.2969 93.0039C32.0078 92.4297 31.5391 92.1426 30.8906 92.1426C30.25 92.1426 29.7832 92.4258 29.4902 92.9922C29.1973 93.5547 29.0508 94.459 29.0508 95.7051Z" fill="black" fill-opacity="0.7"/>
<path d="M54 95.5H318" stroke="#D3D3D4"/>
<path d="M0.685547 143.338C0.685547 141.654 1.01172 140.396 1.66406 139.564C2.32031 138.729 3.28906 138.311 4.57031 138.311C5.01172 138.311 5.35938 138.348 5.61328 138.422V139.26C5.3125 139.162 4.96875 139.113 4.58203 139.113C3.66406 139.113 2.96289 139.4 2.47852 139.975C1.99414 140.545 1.72852 141.443 1.68164 142.67H1.75195C2.18164 141.998 2.86133 141.662 3.79102 141.662C4.56055 141.662 5.16602 141.895 5.60742 142.359C6.05273 142.824 6.27539 143.455 6.27539 144.252C6.27539 145.143 6.03125 145.844 5.54297 146.355C5.05859 146.863 4.40234 147.117 3.57422 147.117C2.6875 147.117 1.98438 146.785 1.46484 146.121C0.945312 145.453 0.685547 144.525 0.685547 143.338ZM3.5625 146.291C4.11719 146.291 4.54688 146.117 4.85156 145.77C5.16016 145.418 5.31445 144.912 5.31445 144.252C5.31445 143.686 5.17188 143.24 4.88672 142.916C4.60156 142.592 4.17578 142.43 3.60938 142.43C3.25781 142.43 2.93555 142.502 2.64258 142.646C2.34961 142.791 2.11523 142.99 1.93945 143.244C1.76758 143.498 1.68164 143.762 1.68164 144.035C1.68164 144.438 1.75977 144.812 1.91602 145.16C2.07227 145.508 2.29297 145.783 2.57812 145.986C2.86719 146.189 3.19531 146.291 3.5625 146.291ZM13.1309 142.705C13.1309 144.186 12.8965 145.291 12.4277 146.021C11.9629 146.752 11.25 147.117 10.2891 147.117C9.36719 147.117 8.66602 146.744 8.18555 145.998C7.70508 145.248 7.46484 144.15 7.46484 142.705C7.46484 141.213 7.69727 140.105 8.16211 139.383C8.62695 138.66 9.33594 138.299 10.2891 138.299C11.2188 138.299 11.9238 138.676 12.4043 139.43C12.8887 140.184 13.1309 141.275 13.1309 142.705ZM8.44922 142.705C8.44922 143.951 8.5957 144.859 8.88867 145.43C9.18164 145.996 9.64844 146.279 10.2891 146.279C10.9375 146.279 11.4062 145.992 11.6953 145.418C11.9883 144.84 12.1348 143.936 12.1348 142.705C12.1348 141.475 11.9883 140.574 11.6953 140.004C11.4062 139.43 10.9375 139.143 10.2891 139.143C9.64844 139.143 9.18164 139.426 8.88867 139.992C8.5957 140.555 8.44922 141.459 8.44922 142.705ZM19.998 142.705C19.998 144.186 19.7637 145.291 19.2949 146.021C18.8301 146.752 18.1172 147.117 17.1562 147.117C16.2344 147.117 15.5332 146.744 15.0527 145.998C14.5723 145.248 14.332 144.15 14.332 142.705C14.332 141.213 14.5645 140.105 15.0293 139.383C15.4941 138.66 16.2031 138.299 17.1562 138.299C18.0859 138.299 18.791 138.676 19.2715 139.43C19.7559 140.184 19.998 141.275 19.998 142.705ZM15.3164 142.705C15.3164 143.951 15.4629 144.859 15.7559 145.43C16.0488 145.996 16.5156 146.279 17.1562 146.279C17.8047 146.279 18.2734 145.992 18.5625 145.418C18.8555 144.84 19.002 143.936 19.002 142.705C19.002 141.475 18.8555 140.574 18.5625 140.004C18.2734 139.43 17.8047 139.143 17.1562 139.143C16.5156 139.143 16.0488 139.426 15.7559 139.992C15.4629 140.555 15.3164 141.459 15.3164 142.705ZM26.8652 142.705C26.8652 144.186 26.6309 145.291 26.1621 146.021C25.6973 146.752 24.9844 147.117 24.0234 147.117C23.1016 147.117 22.4004 146.744 21.9199 145.998C21.4395 145.248 21.1992 144.15 21.1992 142.705C21.1992 141.213 21.4316 140.105 21.8965 139.383C22.3613 138.66 23.0703 138.299 24.0234 138.299C24.9531 138.299 25.6582 138.676 26.1387 139.43C26.623 140.184 26.8652 141.275 26.8652 142.705ZM22.1836 142.705C22.1836 143.951 22.3301 144.859 22.623 145.43C22.916 145.996 23.3828 146.279 24.0234 146.279C24.6719 146.279 25.1406 145.992 25.4297 145.418C25.7227 144.84 25.8691 143.936 25.8691 142.705C25.8691 141.475 25.7227 140.574 25.4297 140.004C25.1406 139.43 24.6719 139.143 24.0234 139.143C23.3828 139.143 22.916 139.426 22.623 139.992C22.3301 140.555 22.1836 141.459 22.1836 142.705ZM33.7324 142.705C33.7324 144.186 33.498 145.291 33.0293 146.021C32.5645 146.752 31.8516 147.117 30.8906 147.117C29.9688 147.117 29.2676 146.744 28.7871 145.998C28.3066 145.248 28.0664 144.15 28.0664 142.705C28.0664 141.213 28.2988 140.105 28.7637 139.383C29.2285 138.66 29.9375 138.299 30.8906 138.299C31.8203 138.299 32.5254 138.676 33.0059 139.43C33.4902 140.184 33.7324 141.275 33.7324 142.705ZM29.0508 142.705C29.0508 143.951 29.1973 144.859 29.4902 145.43C29.7832 145.996 30.25 146.279 30.8906 146.279C31.5391 146.279 32.0078 145.992 32.2969 145.418C32.5898 144.84 32.7363 143.936 32.7363 142.705C32.7363 141.475 32.5898 140.574 32.2969 140.004C32.0078 139.43 31.5391 139.143 30.8906 139.143C30.25 139.143 29.7832 139.426 29.4902 139.992C29.1973 140.555 29.0508 141.459 29.0508 142.705Z" fill="black" fill-opacity="0.7"/>
<path d="M54 142.5H318" stroke="#D3D3D4"/>
<path d="M3.26367 188.768C4.16602 188.768 4.875 188.992 5.39062 189.441C5.91016 189.887 6.16992 190.498 6.16992 191.275C6.16992 192.162 5.88672 192.857 5.32031 193.361C4.75781 193.865 3.98047 194.117 2.98828 194.117C2.02344 194.117 1.28711 193.963 0.779297 193.654V192.717C1.05273 192.893 1.39258 193.031 1.79883 193.133C2.20508 193.23 2.60547 193.279 3 193.279C3.6875 193.279 4.2207 193.117 4.59961 192.793C4.98242 192.469 5.17383 192 5.17383 191.387C5.17383 190.191 4.44141 189.594 2.97656 189.594C2.60547 189.594 2.10938 189.65 1.48828 189.764L0.984375 189.441L1.30664 185.434H5.56641V186.33H2.13867L1.92188 188.902C2.37109 188.812 2.81836 188.768 3.26367 188.768ZM13.1309 189.705C13.1309 191.186 12.8965 192.291 12.4277 193.021C11.9629 193.752 11.25 194.117 10.2891 194.117C9.36719 194.117 8.66602 193.744 8.18555 192.998C7.70508 192.248 7.46484 191.15 7.46484 189.705C7.46484 188.213 7.69727 187.105 8.16211 186.383C8.62695 185.66 9.33594 185.299 10.2891 185.299C11.2188 185.299 11.9238 185.676 12.4043 186.43C12.8887 187.184 13.1309 188.275 13.1309 189.705ZM8.44922 189.705C8.44922 190.951 8.5957 191.859 8.88867 192.43C9.18164 192.996 9.64844 193.279 10.2891 193.279C10.9375 193.279 11.4062 192.992 11.6953 192.418C11.9883 191.84 12.1348 190.936 12.1348 189.705C12.1348 188.475 11.9883 187.574 11.6953 187.004C11.4062 186.43 10.9375 186.143 10.2891 186.143C9.64844 186.143 9.18164 186.426 8.88867 186.992C8.5957 187.555 8.44922 188.459 8.44922 189.705ZM19.998 189.705C19.998 191.186 19.7637 192.291 19.2949 193.021C18.8301 193.752 18.1172 194.117 17.1562 194.117C16.2344 194.117 15.5332 193.744 15.0527 192.998C14.5723 192.248 14.332 191.15 14.332 189.705C14.332 188.213 14.5645 187.105 15.0293 186.383C15.4941 185.66 16.2031 185.299 17.1562 185.299C18.0859 185.299 18.791 185.676 19.2715 186.43C19.7559 187.184 19.998 188.275 19.998 189.705ZM15.3164 189.705C15.3164 190.951 15.4629 191.859 15.7559 192.43C16.0488 192.996 16.5156 193.279 17.1562 193.279C17.8047 193.279 18.2734 192.992 18.5625 192.418C18.8555 191.84 19.002 190.936 19.002 189.705C19.002 188.475 18.8555 187.574 18.5625 187.004C18.2734 186.43 17.8047 186.143 17.1562 186.143C16.5156 186.143 16.0488 186.426 15.7559 186.992C15.4629 187.555 15.3164 188.459 15.3164 189.705ZM26.8652 189.705C26.8652 191.186 26.6309 192.291 26.1621 193.021C25.6973 193.752 24.9844 194.117 24.0234 194.117C23.1016 194.117 22.4004 193.744 21.9199 192.998C21.4395 192.248 21.1992 191.15 21.1992 189.705C21.1992 188.213 21.4316 187.105 21.8965 186.383C22.3613 185.66 23.0703 185.299 24.0234 185.299C24.9531 185.299 25.6582 185.676 26.1387 186.43C26.623 187.184 26.8652 188.275 26.8652 189.705ZM22.1836 189.705C22.1836 190.951 22.3301 191.859 22.623 192.43C22.916 192.996 23.3828 193.279 24.0234 193.279C24.6719 193.279 25.1406 192.992 25.4297 192.418C25.7227 191.84 25.8691 190.936 25.8691 189.705C25.8691 188.475 25.7227 187.574 25.4297 187.004C25.1406 186.43 24.6719 186.143 24.0234 186.143C23.3828 186.143 22.916 186.426 22.623 186.992C22.3301 187.555 22.1836 188.459 22.1836 189.705ZM33.7324 189.705C33.7324 191.186 33.498 192.291 33.0293 193.021C32.5645 193.752 31.8516 194.117 30.8906 194.117C29.9688 194.117 29.2676 193.744 28.7871 192.998C28.3066 192.248 28.0664 191.15 28.0664 189.705C28.0664 188.213 28.2988 187.105 28.7637 186.383C29.2285 185.66 29.9375 185.299 30.8906 185.299C31.8203 185.299 32.5254 185.676 33.0059 186.43C33.4902 187.184 33.7324 188.275 33.7324 189.705ZM29.0508 189.705C29.0508 190.951 29.1973 191.859 29.4902 192.43C29.7832 192.996 30.25 193.279 30.8906 193.279C31.5391 193.279 32.0078 192.992 32.2969 192.418C32.5898 191.84 32.7363 190.936 32.7363 189.705C32.7363 188.475 32.5898 187.574 32.2969 187.004C32.0078 186.43 31.5391 186.143 30.8906 186.143C30.25 186.143 29.7832 186.426 29.4902 186.992C29.1973 187.555 29.0508 188.459 29.0508 189.705Z" fill="black" fill-opacity="0.7"/>
<path d="M54 189.5H318" stroke="#D3D3D4"/>
<path d="M6.62109 239.031H5.34961V241H4.41797V239.031H0.251953V238.182L4.31836 232.387H5.34961V238.146H6.62109V239.031ZM4.41797 238.146V235.299C4.41797 234.74 4.4375 234.109 4.47656 233.406H4.42969C4.24219 233.781 4.06641 234.092 3.90234 234.338L1.22461 238.146H4.41797ZM13.1309 236.705C13.1309 238.186 12.8965 239.291 12.4277 240.021C11.9629 240.752 11.25 241.117 10.2891 241.117C9.36719 241.117 8.66602 240.744 8.18555 239.998C7.70508 239.248 7.46484 238.15 7.46484 236.705C7.46484 235.213 7.69727 234.105 8.16211 233.383C8.62695 232.66 9.33594 232.299 10.2891 232.299C11.2188 232.299 11.9238 232.676 12.4043 233.43C12.8887 234.184 13.1309 235.275 13.1309 236.705ZM8.44922 236.705C8.44922 237.951 8.5957 238.859 8.88867 239.43C9.18164 239.996 9.64844 240.279 10.2891 240.279C10.9375 240.279 11.4062 239.992 11.6953 239.418C11.9883 238.84 12.1348 237.936 12.1348 236.705C12.1348 235.475 11.9883 234.574 11.6953 234.004C11.4062 233.43 10.9375 233.143 10.2891 233.143C9.64844 233.143 9.18164 233.426 8.88867 233.992C8.5957 234.555 8.44922 235.459 8.44922 236.705ZM19.998 236.705C19.998 238.186 19.7637 239.291 19.2949 240.021C18.8301 240.752 18.1172 241.117 17.1562 241.117C16.2344 241.117 15.5332 240.744 15.0527 239.998C14.5723 239.248 14.332 238.15 14.332 236.705C14.332 235.213 14.5645 234.105 15.0293 233.383C15.4941 232.66 16.2031 232.299 17.1562 232.299C18.0859 232.299 18.791 232.676 19.2715 233.43C19.7559 234.184 19.998 235.275 19.998 236.705ZM15.3164 236.705C15.3164 237.951 15.4629 238.859 15.7559 239.43C16.0488 239.996 16.5156 240.279 17.1562 240.279C17.8047 240.279 18.2734 239.992 18.5625 239.418C18.8555 238.84 19.002 237.936 19.002 236.705C19.002 235.475 18.8555 234.574 18.5625 234.004C18.2734 233.43 17.8047 233.143 17.1562 233.143C16.5156 233.143 16.0488 233.426 15.7559 233.992C15.4629 234.555 15.3164 235.459 15.3164 236.705ZM26.8652 236.705C26.8652 238.186 26.6309 239.291 26.1621 240.021C25.6973 240.752 24.9844 241.117 24.0234 241.117C23.1016 241.117 22.4004 240.744 21.9199 239.998C21.4395 239.248 21.1992 238.15 21.1992 236.705C21.1992 235.213 21.4316 234.105 21.8965 233.383C22.3613 232.66 23.0703 232.299 24.0234 232.299C24.9531 232.299 25.6582 232.676 26.1387 233.43C26.623 234.184 26.8652 235.275 26.8652 236.705ZM22.1836 236.705C22.1836 237.951 22.3301 238.859 22.623 239.43C22.916 239.996 23.3828 240.279 24.0234 240.279C24.6719 240.279 25.1406 239.992 25.4297 239.418C25.7227 238.84 25.8691 237.936 25.8691 236.705C25.8691 235.475 25.7227 234.574 25.4297 234.004C25.1406 233.43 24.6719 233.143 24.0234 233.143C23.3828 233.143 22.916 233.426 22.623 233.992C22.3301 234.555 22.1836 235.459 22.1836 236.705ZM33.7324 236.705C33.7324 238.186 33.498 239.291 33.0293 240.021C32.5645 240.752 31.8516 241.117 30.8906 241.117C29.9688 241.117 29.2676 240.744 28.7871 239.998C28.3066 239.248 28.0664 238.15 28.0664 236.705C28.0664 235.213 28.2988 234.105 28.7637 233.383C29.2285 232.66 29.9375 232.299 30.8906 232.299C31.8203 232.299 32.5254 232.676 33.0059 233.43C33.4902 234.184 33.7324 235.275 33.7324 236.705ZM29.0508 236.705C29.0508 237.951 29.1973 238.859 29.4902 239.43C29.7832 239.996 30.25 240.279 30.8906 240.279C31.5391 240.279 32.0078 239.992 32.2969 239.418C32.5898 238.84 32.7363 237.936 32.7363 236.705C32.7363 235.475 32.5898 234.574 32.2969 234.004C32.0078 233.43 31.5391 233.143 30.8906 233.143C30.25 233.143 29.7832 233.426 29.4902 233.992C29.1973 234.555 29.0508 235.459 29.0508 236.705Z" fill="black" fill-opacity="0.7"/>
<path d="M54 236.5H318" stroke="#D3D3D4"/>
<path d="M5.89453 281.449C5.89453 281.996 5.74023 282.443 5.43164 282.791C5.12695 283.139 4.69336 283.371 4.13086 283.488V283.535C4.81836 283.621 5.32812 283.84 5.66016 284.191C5.99219 284.543 6.1582 285.004 6.1582 285.574C6.1582 286.391 5.875 287.02 5.30859 287.461C4.74219 287.898 3.9375 288.117 2.89453 288.117C2.44141 288.117 2.02539 288.082 1.64648 288.012C1.27148 287.945 0.90625 287.826 0.550781 287.654V286.729C0.921875 286.912 1.31641 287.053 1.73438 287.15C2.15625 287.244 2.55469 287.291 2.92969 287.291C4.41016 287.291 5.15039 286.711 5.15039 285.551C5.15039 284.512 4.33398 283.992 2.70117 283.992H1.85742V283.154H2.71289C3.38086 283.154 3.91016 283.008 4.30078 282.715C4.69141 282.418 4.88672 282.008 4.88672 281.484C4.88672 281.066 4.74219 280.738 4.45312 280.5C4.16797 280.262 3.7793 280.143 3.28711 280.143C2.91211 280.143 2.55859 280.193 2.22656 280.295C1.89453 280.396 1.51562 280.584 1.08984 280.857L0.597656 280.201C0.949219 279.924 1.35352 279.707 1.81055 279.551C2.27148 279.391 2.75586 279.311 3.26367 279.311C4.0957 279.311 4.74219 279.502 5.20312 279.885C5.66406 280.264 5.89453 280.785 5.89453 281.449ZM13.1309 283.705C13.1309 285.186 12.8965 286.291 12.4277 287.021C11.9629 287.752 11.25 288.117 10.2891 288.117C9.36719 288.117 8.66602 287.744 8.18555 286.998C7.70508 286.248 7.46484 285.15 7.46484 283.705C7.46484 282.213 7.69727 281.105 8.16211 280.383C8.62695 279.66 9.33594 279.299 10.2891 279.299C11.2188 279.299 11.9238 279.676 12.4043 280.43C12.8887 281.184 13.1309 282.275 13.1309 283.705ZM8.44922 283.705C8.44922 284.951 8.5957 285.859 8.88867 286.43C9.18164 286.996 9.64844 287.279 10.2891 287.279C10.9375 287.279 11.4062 286.992 11.6953 286.418C11.9883 285.84 12.1348 284.936 12.1348 283.705C12.1348 282.475 11.9883 281.574 11.6953 281.004C11.4062 280.43 10.9375 280.143 10.2891 280.143C9.64844 280.143 9.18164 280.426 8.88867 280.992C8.5957 281.555 8.44922 282.459 8.44922 283.705ZM19.998 283.705C19.998 285.186 19.7637 286.291 19.2949 287.021C18.8301 287.752 18.1172 288.117 17.1562 288.117C16.2344 288.117 15.5332 287.744 15.0527 286.998C14.5723 286.248 14.332 285.15 14.332 283.705C14.332 282.213 14.5645 281.105 15.0293 280.383C15.4941 279.66 16.2031 279.299 17.1562 279.299C18.0859 279.299 18.791 279.676 19.2715 280.43C19.7559 281.184 19.998 282.275 19.998 283.705ZM15.3164 283.705C15.3164 284.951 15.4629 285.859 15.7559 286.43C16.0488 286.996 16.5156 287.279 17.1562 287.279C17.8047 287.279 18.2734 286.992 18.5625 286.418C18.8555 285.84 19.002 284.936 19.002 283.705C19.002 282.475 18.8555 281.574 18.5625 281.004C18.2734 280.43 17.8047 280.143 17.1562 280.143C16.5156 280.143 16.0488 280.426 15.7559 280.992C15.4629 281.555 15.3164 282.459 15.3164 283.705ZM26.8652 283.705C26.8652 285.186 26.6309 286.291 26.1621 287.021C25.6973 287.752 24.9844 288.117 24.0234 288.117C23.1016 288.117 22.4004 287.744 21.9199 286.998C21.4395 286.248 21.1992 285.15 21.1992 283.705C21.1992 282.213 21.4316 281.105 21.8965 280.383C22.3613 279.66 23.0703 279.299 24.0234 279.299C24.9531 279.299 25.6582 279.676 26.1387 280.43C26.623 281.184 26.8652 282.275 26.8652 283.705ZM22.1836 283.705C22.1836 284.951 22.3301 285.859 22.623 286.43C22.916 286.996 23.3828 287.279 24.0234 287.279C24.6719 287.279 25.1406 286.992 25.4297 286.418C25.7227 285.84 25.8691 284.936 25.8691 283.705C25.8691 282.475 25.7227 281.574 25.4297 281.004C25.1406 280.43 24.6719 280.143 24.0234 280.143C23.3828 280.143 22.916 280.426 22.623 280.992C22.3301 281.555 22.1836 282.459 22.1836 283.705ZM33.7324 283.705C33.7324 285.186 33.498 286.291 33.0293 287.021C32.5645 287.752 31.8516 288.117 30.8906 288.117C29.9688 288.117 29.2676 287.744 28.7871 286.998C28.3066 286.248 28.0664 285.15 28.0664 283.705C28.0664 282.213 28.2988 281.105 28.7637 280.383C29.2285 279.66 29.9375 279.299 30.8906 279.299C31.8203 279.299 32.5254 279.676 33.0059 280.43C33.4902 281.184 33.7324 282.275 33.7324 283.705ZM29.0508 283.705C29.0508 284.951 29.1973 285.859 29.4902 286.43C29.7832 286.996 30.25 287.279 30.8906 287.279C31.5391 287.279 32.0078 286.992 32.2969 286.418C32.5898 285.84 32.7363 284.936 32.7363 283.705C32.7363 282.475 32.5898 281.574 32.2969 281.004C32.0078 280.43 31.5391 280.143 30.8906 280.143C30.25 280.143 29.7832 280.426 29.4902 280.992C29.1973 281.555 29.0508 282.459 29.0508 283.705Z" fill="black" fill-opacity="0.7"/>
<path d="M54 283.5H318" stroke="#D3D3D4"/>
<path d="M6.2168 335H0.585938V334.162L2.8418 331.895C3.5293 331.199 3.98242 330.703 4.20117 330.406C4.41992 330.109 4.58398 329.82 4.69336 329.539C4.80273 329.258 4.85742 328.955 4.85742 328.631C4.85742 328.174 4.71875 327.812 4.44141 327.547C4.16406 327.277 3.7793 327.143 3.28711 327.143C2.93164 327.143 2.59375 327.201 2.27344 327.318C1.95703 327.436 1.60352 327.648 1.21289 327.957L0.697266 327.295C1.48633 326.639 2.3457 326.311 3.27539 326.311C4.08008 326.311 4.71094 326.518 5.16797 326.932C5.625 327.342 5.85352 327.895 5.85352 328.59C5.85352 329.133 5.70117 329.67 5.39648 330.201C5.0918 330.732 4.52148 331.404 3.68555 332.217L1.81055 334.051V334.098H6.2168V335ZM13.1309 330.705C13.1309 332.186 12.8965 333.291 12.4277 334.021C11.9629 334.752 11.25 335.117 10.2891 335.117C9.36719 335.117 8.66602 334.744 8.18555 333.998C7.70508 333.248 7.46484 332.15 7.46484 330.705C7.46484 329.213 7.69727 328.105 8.16211 327.383C8.62695 326.66 9.33594 326.299 10.2891 326.299C11.2188 326.299 11.9238 326.676 12.4043 327.43C12.8887 328.184 13.1309 329.275 13.1309 330.705ZM8.44922 330.705C8.44922 331.951 8.5957 332.859 8.88867 333.43C9.18164 333.996 9.64844 334.279 10.2891 334.279C10.9375 334.279 11.4062 333.992 11.6953 333.418C11.9883 332.84 12.1348 331.936 12.1348 330.705C12.1348 329.475 11.9883 328.574 11.6953 328.004C11.4062 327.43 10.9375 327.143 10.2891 327.143C9.64844 327.143 9.18164 327.426 8.88867 327.992C8.5957 328.555 8.44922 329.459 8.44922 330.705ZM19.998 330.705C19.998 332.186 19.7637 333.291 19.2949 334.021C18.8301 334.752 18.1172 335.117 17.1562 335.117C16.2344 335.117 15.5332 334.744 15.0527 333.998C14.5723 333.248 14.332 332.15 14.332 330.705C14.332 329.213 14.5645 328.105 15.0293 327.383C15.4941 326.66 16.2031 326.299 17.1562 326.299C18.0859 326.299 18.791 326.676 19.2715 327.43C19.7559 328.184 19.998 329.275 19.998 330.705ZM15.3164 330.705C15.3164 331.951 15.4629 332.859 15.7559 333.43C16.0488 333.996 16.5156 334.279 17.1562 334.279C17.8047 334.279 18.2734 333.992 18.5625 333.418C18.8555 332.84 19.002 331.936 19.002 330.705C19.002 329.475 18.8555 328.574 18.5625 328.004C18.2734 327.43 17.8047 327.143 17.1562 327.143C16.5156 327.143 16.0488 327.426 15.7559 327.992C15.4629 328.555 15.3164 329.459 15.3164 330.705ZM26.8652 330.705C26.8652 332.186 26.6309 333.291 26.1621 334.021C25.6973 334.752 24.9844 335.117 24.0234 335.117C23.1016 335.117 22.4004 334.744 21.9199 333.998C21.4395 333.248 21.1992 332.15 21.1992 330.705C21.1992 329.213 21.4316 328.105 21.8965 327.383C22.3613 326.66 23.0703 326.299 24.0234 326.299C24.9531 326.299 25.6582 326.676 26.1387 327.43C26.623 328.184 26.8652 329.275 26.8652 330.705ZM22.1836 330.705C22.1836 331.951 22.3301 332.859 22.623 333.43C22.916 333.996 23.3828 334.279 24.0234 334.279C24.6719 334.279 25.1406 333.992 25.4297 333.418C25.7227 332.84 25.8691 331.936 25.8691 330.705C25.8691 329.475 25.7227 328.574 25.4297 328.004C25.1406 327.43 24.6719 327.143 24.0234 327.143C23.3828 327.143 22.916 327.426 22.623 327.992C22.3301 328.555 22.1836 329.459 22.1836 330.705ZM33.7324 330.705C33.7324 332.186 33.498 333.291 33.0293 334.021C32.5645 334.752 31.8516 335.117 30.8906 335.117C29.9688 335.117 29.2676 334.744 28.7871 333.998C28.3066 333.248 28.0664 332.15 28.0664 330.705C28.0664 329.213 28.2988 328.105 28.7637 327.383C29.2285 326.66 29.9375 326.299 30.8906 326.299C31.8203 326.299 32.5254 326.676 33.0059 327.43C33.4902 328.184 33.7324 329.275 33.7324 330.705ZM29.0508 330.705C29.0508 331.951 29.1973 332.859 29.4902 333.43C29.7832 333.996 30.25 334.279 30.8906 334.279C31.5391 334.279 32.0078 333.992 32.2969 333.418C32.5898 332.84 32.7363 331.936 32.7363 330.705C32.7363 329.475 32.5898 328.574 32.2969 328.004C32.0078 327.43 31.5391 327.143 30.8906 327.143C30.25 327.143 29.7832 327.426 29.4902 327.992C29.1973 328.555 29.0508 329.459 29.0508 330.705Z" fill="black" fill-opacity="0.7"/>
<path d="M54 330.5H318" stroke="#D3D3D4"/>
<path d="M98.8333 330V336" stroke="#D3D3D4"/>
<path d="M87.0853 352H86.136V345.895C86.136 345.387 86.1517 344.906 86.1829 344.453C86.1009 344.535 86.0091 344.621 85.9075 344.711C85.806 344.801 85.3411 345.182 84.513 345.854L83.9974 345.186L86.265 343.434H87.0853V352ZM95.9798 352H90.3489V351.162L92.6048 348.895C93.2923 348.199 93.7454 347.703 93.9642 347.406C94.1829 347.109 94.347 346.82 94.4564 346.539C94.5657 346.258 94.6204 345.955 94.6204 345.631C94.6204 345.174 94.4818 344.812 94.2044 344.547C93.9271 344.277 93.5423 344.143 93.0501 344.143C92.6946 344.143 92.3568 344.201 92.0364 344.318C91.72 344.436 91.3665 344.648 90.9759 344.957L90.4603 344.295C91.2493 343.639 92.1087 343.311 93.0384 343.311C93.8431 343.311 94.4739 343.518 94.931 343.932C95.388 344.342 95.6165 344.895 95.6165 345.59C95.6165 346.133 95.4642 346.67 95.1595 347.201C94.8548 347.732 94.2845 348.404 93.4485 349.217L91.5735 351.051V351.098H95.9798V352ZM100.913 343.434L97.72 352H96.7474L99.9407 343.434H100.913ZM107.253 352H101.622V351.162L103.878 348.895C104.566 348.199 105.019 347.703 105.238 347.406C105.456 347.109 105.62 346.82 105.73 346.539C105.839 346.258 105.894 345.955 105.894 345.631C105.894 345.174 105.755 344.812 105.478 344.547C105.201 344.277 104.816 344.143 104.324 344.143C103.968 344.143 103.63 344.201 103.31 344.318C102.993 344.436 102.64 344.648 102.249 344.957L101.734 344.295C102.523 343.639 103.382 343.311 104.312 343.311C105.117 343.311 105.747 343.518 106.204 343.932C106.661 344.342 106.89 344.895 106.89 345.59C106.89 346.133 106.738 346.67 106.433 347.201C106.128 347.732 105.558 348.404 104.722 349.217L102.847 351.051V351.098H107.253V352ZM113.798 345.449C113.798 345.996 113.644 346.443 113.335 346.791C113.031 347.139 112.597 347.371 112.034 347.488V347.535C112.722 347.621 113.232 347.84 113.564 348.191C113.896 348.543 114.062 349.004 114.062 349.574C114.062 350.391 113.779 351.02 113.212 351.461C112.646 351.898 111.841 352.117 110.798 352.117C110.345 352.117 109.929 352.082 109.55 352.012C109.175 351.945 108.81 351.826 108.454 351.654V350.729C108.826 350.912 109.22 351.053 109.638 351.15C110.06 351.244 110.458 351.291 110.833 351.291C112.314 351.291 113.054 350.711 113.054 349.551C113.054 348.512 112.238 347.992 110.605 347.992H109.761V347.154H110.617C111.284 347.154 111.814 347.008 112.204 346.715C112.595 346.418 112.79 346.008 112.79 345.484C112.79 345.066 112.646 344.738 112.357 344.5C112.072 344.262 111.683 344.143 111.191 344.143C110.816 344.143 110.462 344.193 110.13 344.295C109.798 344.396 109.419 344.584 108.993 344.857L108.501 344.201C108.853 343.924 109.257 343.707 109.714 343.551C110.175 343.391 110.659 343.311 111.167 343.311C111.999 343.311 112.646 343.502 113.107 343.885C113.568 344.264 113.798 344.785 113.798 345.449Z" fill="black" fill-opacity="0.7"/>
<path d="M186.5 330V336" stroke="#D3D3D4"/>
<path d="M176.826 347.705C176.826 349.186 176.592 350.291 176.123 351.021C175.658 351.752 174.945 352.117 173.984 352.117C173.062 352.117 172.361 351.744 171.881 350.998C171.4 350.248 171.16 349.15 171.16 347.705C171.16 346.213 171.393 345.105 171.857 344.383C172.322 343.66 173.031 343.299 173.984 343.299C174.914 343.299 175.619 343.676 176.1 344.43C176.584 345.184 176.826 346.275 176.826 347.705ZM172.145 347.705C172.145 348.951 172.291 349.859 172.584 350.43C172.877 350.996 173.344 351.279 173.984 351.279C174.633 351.279 175.102 350.992 175.391 350.418C175.684 349.84 175.83 348.936 175.83 347.705C175.83 346.475 175.684 345.574 175.391 345.004C175.102 344.43 174.633 344.143 173.984 344.143C173.344 344.143 172.877 344.426 172.584 344.992C172.291 345.555 172.145 346.459 172.145 347.705ZM181.619 352H180.67V345.895C180.67 345.387 180.686 344.906 180.717 344.453C180.635 344.535 180.543 344.621 180.441 344.711C180.34 344.801 179.875 345.182 179.047 345.854L178.531 345.186L180.799 343.434H181.619V352ZM188.58 343.434L185.387 352H184.414L187.607 343.434H188.58ZM194.92 352H189.289V351.162L191.545 348.895C192.232 348.199 192.686 347.703 192.904 347.406C193.123 347.109 193.287 346.82 193.396 346.539C193.506 346.258 193.561 345.955 193.561 345.631C193.561 345.174 193.422 344.812 193.145 344.547C192.867 344.277 192.482 344.143 191.99 344.143C191.635 344.143 191.297 344.201 190.977 344.318C190.66 344.436 190.307 344.648 189.916 344.957L189.4 344.295C190.189 343.639 191.049 343.311 191.979 343.311C192.783 343.311 193.414 343.518 193.871 343.932C194.328 344.342 194.557 344.895 194.557 345.59C194.557 346.133 194.404 346.67 194.1 347.201C193.795 347.732 193.225 348.404 192.389 349.217L190.514 351.051V351.098H194.92V352ZM202.191 350.031H200.92V352H199.988V350.031H195.822V349.182L199.889 343.387H200.92V349.146H202.191V350.031ZM199.988 349.146V346.299C199.988 345.74 200.008 345.109 200.047 344.406H200C199.812 344.781 199.637 345.092 199.473 345.338L196.795 349.146H199.988Z" fill="black" fill-opacity="0.7"/>
<path d="M274.167 330V336" stroke="#D3D3D4"/>
<path d="M262.419 352H261.469V345.895C261.469 345.387 261.485 344.906 261.516 344.453C261.434 344.535 261.342 344.621 261.241 344.711C261.139 344.801 260.674 345.182 259.846 345.854L259.331 345.186L261.598 343.434H262.419V352ZM271.313 352H265.682V351.162L267.938 348.895C268.626 348.199 269.079 347.703 269.298 347.406C269.516 347.109 269.68 346.82 269.79 346.539C269.899 346.258 269.954 345.955 269.954 345.631C269.954 345.174 269.815 344.812 269.538 344.547C269.26 344.277 268.876 344.143 268.383 344.143C268.028 344.143 267.69 344.201 267.37 344.318C267.053 344.436 266.7 344.648 266.309 344.957L265.794 344.295C266.583 343.639 267.442 343.311 268.372 343.311C269.176 343.311 269.807 343.518 270.264 343.932C270.721 344.342 270.95 344.895 270.95 345.59C270.95 346.133 270.798 346.67 270.493 347.201C270.188 347.732 269.618 348.404 268.782 349.217L266.907 351.051V351.098H271.313V352ZM276.247 343.434L273.053 352H272.081L275.274 343.434H276.247ZM282.587 352H276.956V351.162L279.212 348.895C279.899 348.199 280.352 347.703 280.571 347.406C280.79 347.109 280.954 346.82 281.063 346.539C281.173 346.258 281.227 345.955 281.227 345.631C281.227 345.174 281.089 344.812 280.811 344.547C280.534 344.277 280.149 344.143 279.657 344.143C279.301 344.143 278.964 344.201 278.643 344.318C278.327 344.436 277.973 344.648 277.583 344.957L277.067 344.295C277.856 343.639 278.716 343.311 279.645 343.311C280.45 343.311 281.081 343.518 281.538 343.932C281.995 344.342 282.223 344.895 282.223 345.59C282.223 346.133 282.071 346.67 281.766 347.201C281.462 347.732 280.891 348.404 280.055 349.217L278.18 351.051V351.098H282.587V352ZM289.858 350.031H288.587V352H287.655V350.031H283.489V349.182L287.555 343.387H288.587V349.146H289.858V350.031ZM287.655 349.146V346.299C287.655 345.74 287.674 345.109 287.714 344.406H287.667C287.479 344.781 287.303 345.092 287.139 345.338L284.462 349.146H287.655Z" fill="black" fill-opacity="0.7"/>
<path d="M318 46L301.667 61.8072L285.535 49.3632L269.202 55.0807L253.272 79.9686H236.737L220 121" stroke="#9C4FFF" stroke-width="3" stroke-dasharray="6 6"/>
<path d="M64.3598 324.222L54 321.843V330H220V122L209.64 128.797L196.355 186.915L183.436 196.431L175.758 234.157L161.62 245.373L154.307 278.34L133.344 302.81L117.012 275.281L92.6358 302.81L78.0103 293.294L64.3598 324.222Z" fill="url(#paint0_linear_1_229)"/>
<path d="M54 321.624L64.3598 324L78.0103 293.106L92.6358 302.612L117.012 275.113L133.344 302.612L154.307 278.168L161.62 245.237L175.758 234.034L183.436 196.35L196.355 186.844L209.64 128.79L220 122" stroke="#1873EB" stroke-width="3"/>
<path d="M220 329.5V45.5" stroke="#4D4D4D" stroke-dasharray="6 6"/>
<defs>
<linearGradient id="paint0_linear_1_229" x1="137" y1="122" x2="137" y2="330" gradientUnits="userSpaceOnUse">
<stop stop-color="#1873EB" stop-opacity="0.35"/>
<stop offset="1" stop-color="#1873EB" stop-opacity="0"/>
</linearGradient>
<clipPath id="clip0_1_229">
<rect width="103" height="24" fill="white" transform="translate(44.5)"/>
</clipPath>
<clipPath id="clip1_1_229">
<rect width="110" height="24" fill="white" transform="translate(163.5)"/>
</clipPath>
</defs>
</svg>
