<svg width="811" height="358" viewBox="0 0 811 358" fill="none" xmlns="http://www.w3.org/2000/svg">
    <g clip-path="url(#clip0_1_1380)">
        <rect x="581" y="4" width="16" height="16" rx="3" fill="#1873EB"/>
        <path d="M612.201 17H610.561V12.4951H605.953V17H604.319V7.00586H605.953V11.0938H610.561V7.00586H612.201V17ZM614.833 17V7.00586H616.467V17H614.833ZM624.875 14.2861C624.875 15.1748 624.554 15.8721 623.911 16.3779C623.269 16.8838 622.382 17.1367 621.252 17.1367C620.122 17.1367 619.197 16.9613 618.477 16.6104V15.0654C618.932 15.2796 619.415 15.4482 619.926 15.5713C620.441 15.6943 620.919 15.7559 621.361 15.7559C622.008 15.7559 622.485 15.6328 622.79 15.3867C623.1 15.1406 623.255 14.8102 623.255 14.3955C623.255 14.0218 623.114 13.7051 622.831 13.4453C622.549 13.1855 621.965 12.8779 621.081 12.5225C620.17 12.1533 619.527 11.7318 619.153 11.2578C618.78 10.7839 618.593 10.2142 618.593 9.54883C618.593 8.71484 618.889 8.05859 619.481 7.58008C620.074 7.10156 620.869 6.8623 621.867 6.8623C622.824 6.8623 623.777 7.07194 624.725 7.49121L624.205 8.82422C623.316 8.45052 622.523 8.26367 621.826 8.26367C621.298 8.26367 620.896 8.37988 620.623 8.6123C620.35 8.84017 620.213 9.14323 620.213 9.52148C620.213 9.78125 620.268 10.0046 620.377 10.1914C620.486 10.3737 620.666 10.5469 620.917 10.7109C621.168 10.875 621.619 11.0915 622.271 11.3604C623.004 11.6657 623.542 11.9505 623.884 12.2148C624.226 12.4792 624.476 12.7777 624.636 13.1104C624.795 13.443 624.875 13.835 624.875 14.2861ZM630.262 17H628.628V8.40723H625.688V7.00586H633.201V8.40723H630.262V17ZM643.612 11.9893C643.612 13.6162 643.204 14.8809 642.389 15.7832C641.577 16.6855 640.427 17.1367 638.937 17.1367C637.428 17.1367 636.268 16.6901 635.457 15.7969C634.65 14.8991 634.247 13.6253 634.247 11.9756C634.247 10.3258 634.653 9.05892 635.464 8.1748C636.28 7.29069 637.442 6.84863 638.95 6.84863C640.436 6.84863 641.584 7.29753 642.396 8.19531C643.207 9.0931 643.612 10.3577 643.612 11.9893ZM635.983 11.9893C635.983 13.2197 636.232 14.154 636.729 14.792C637.225 15.4255 637.961 15.7422 638.937 15.7422C639.907 15.7422 640.639 15.4277 641.131 14.7988C641.628 14.1699 641.876 13.2334 641.876 11.9893C641.876 10.7633 641.63 9.83366 641.138 9.2002C640.65 8.56673 639.921 8.25 638.95 8.25C637.97 8.25 637.23 8.56673 636.729 9.2002C636.232 9.83366 635.983 10.7633 635.983 11.9893ZM647.393 11.6543H648.527C649.288 11.6543 649.84 11.513 650.182 11.2305C650.523 10.9479 650.694 10.5286 650.694 9.97266C650.694 9.40755 650.51 9.00195 650.141 8.75586C649.771 8.50977 649.215 8.38672 648.473 8.38672H647.393V11.6543ZM647.393 13.0078V17H645.759V7.00586H648.582C649.872 7.00586 650.826 7.2474 651.446 7.73047C652.066 8.21354 652.376 8.94271 652.376 9.91797C652.376 11.1621 651.729 12.0485 650.435 12.5771L653.258 17H651.398L649.006 13.0078H647.393ZM654.714 17V7.00586H656.348V17H654.714ZM663.245 8.26367C662.306 8.26367 661.568 8.59635 661.03 9.26172C660.493 9.92708 660.224 10.8454 660.224 12.0166C660.224 13.2425 660.481 14.1699 660.996 14.7988C661.516 15.4277 662.265 15.7422 663.245 15.7422C663.669 15.7422 664.079 15.7012 664.476 15.6191C664.872 15.5326 665.285 15.4232 665.713 15.291V16.6924C664.929 16.9886 664.04 17.1367 663.047 17.1367C661.584 17.1367 660.461 16.6947 659.677 15.8105C658.893 14.9219 658.501 13.6527 658.501 12.0029C658.501 10.9639 658.69 10.0547 659.068 9.27539C659.451 8.49609 660.003 7.89909 660.723 7.48438C661.443 7.06966 662.288 6.8623 663.259 6.8623C664.28 6.8623 665.223 7.0765 666.089 7.50488L665.501 8.86523C665.164 8.70573 664.806 8.56673 664.428 8.44824C664.054 8.3252 663.66 8.26367 663.245 8.26367ZM674.066 17L673.068 14.2246H669.247L668.27 17H666.547L670.286 6.96484H672.063L675.803 17H674.066ZM672.638 12.8164L671.701 10.0957C671.633 9.91341 671.537 9.6263 671.414 9.23438C671.296 8.84245 671.214 8.55534 671.168 8.37305C671.045 8.93359 670.865 9.54655 670.628 10.2119L669.726 12.8164H672.638ZM677.122 17V7.00586H678.756V15.5986H682.987V17H677.122Z"
              fill="#4F4F4F"/>
    </g>
    <g clip-path="url(#clip1_1_1380)">
        <rect x="700" y="4" width="16" height="16" rx="3" fill="#9C4FFF"/>
        <path d="M724.939 17H723.319V7.00586H728.959V8.38672H724.939V11.5107H728.706V12.8984H724.939V17ZM739.644 11.9893C739.644 13.6162 739.236 14.8809 738.42 15.7832C737.609 16.6855 736.458 17.1367 734.968 17.1367C733.459 17.1367 732.299 16.6901 731.488 15.7969C730.682 14.8991 730.278 13.6253 730.278 11.9756C730.278 10.3258 730.684 9.05892 731.495 8.1748C732.311 7.29069 733.473 6.84863 734.981 6.84863C736.467 6.84863 737.616 7.29753 738.427 8.19531C739.238 9.0931 739.644 10.3577 739.644 11.9893ZM732.015 11.9893C732.015 13.2197 732.263 14.154 732.76 14.792C733.257 15.4255 733.993 15.7422 734.968 15.7422C735.938 15.7422 736.67 15.4277 737.162 14.7988C737.659 14.1699 737.907 13.2334 737.907 11.9893C737.907 10.7633 737.661 9.83366 737.169 9.2002C736.681 8.56673 735.952 8.25 734.981 8.25C734.002 8.25 733.261 8.56673 732.76 9.2002C732.263 9.83366 732.015 10.7633 732.015 11.9893ZM743.424 11.6543H744.559C745.32 11.6543 745.871 11.513 746.213 11.2305C746.555 10.9479 746.726 10.5286 746.726 9.97266C746.726 9.40755 746.541 9.00195 746.172 8.75586C745.803 8.50977 745.247 8.38672 744.504 8.38672H743.424V11.6543ZM743.424 13.0078V17H741.79V7.00586H744.613C745.903 7.00586 746.858 7.2474 747.478 7.73047C748.097 8.21354 748.407 8.94271 748.407 9.91797C748.407 11.1621 747.76 12.0485 746.466 12.5771L749.289 17H747.43L745.037 13.0078H743.424ZM756.398 17H750.745V7.00586H756.398V8.38672H752.379V11.1074H756.146V12.4746H752.379V15.6123H756.398V17ZM762.817 8.26367C761.879 8.26367 761.14 8.59635 760.603 9.26172C760.065 9.92708 759.796 10.8454 759.796 12.0166C759.796 13.2425 760.053 14.1699 760.568 14.7988C761.088 15.4277 761.838 15.7422 762.817 15.7422C763.241 15.7422 763.651 15.7012 764.048 15.6191C764.444 15.5326 764.857 15.4232 765.285 15.291V16.6924C764.501 16.9886 763.613 17.1367 762.619 17.1367C761.156 17.1367 760.033 16.6947 759.249 15.8105C758.465 14.9219 758.073 13.6527 758.073 12.0029C758.073 10.9639 758.262 10.0547 758.641 9.27539C759.023 8.49609 759.575 7.89909 760.295 7.48438C761.015 7.06966 761.86 6.8623 762.831 6.8623C763.852 6.8623 764.795 7.0765 765.661 7.50488L765.073 8.86523C764.736 8.70573 764.378 8.56673 764 8.44824C763.626 8.3252 763.232 8.26367 762.817 8.26367ZM773.639 17L772.641 14.2246H768.819L767.842 17H766.119L769.858 6.96484H771.636L775.375 17H773.639ZM772.21 12.8164L771.273 10.0957C771.205 9.91341 771.109 9.6263 770.986 9.23438C770.868 8.84245 770.786 8.55534 770.74 8.37305C770.617 8.93359 770.437 9.54655 770.2 10.2119L769.298 12.8164H772.21ZM782.457 14.2861C782.457 15.1748 782.136 15.8721 781.493 16.3779C780.851 16.8838 779.964 17.1367 778.834 17.1367C777.704 17.1367 776.779 16.9613 776.059 16.6104V15.0654C776.514 15.2796 776.997 15.4482 777.508 15.5713C778.023 15.6943 778.501 15.7559 778.943 15.7559C779.59 15.7559 780.067 15.6328 780.372 15.3867C780.682 15.1406 780.837 14.8102 780.837 14.3955C780.837 14.0218 780.696 13.7051 780.413 13.4453C780.131 13.1855 779.547 12.8779 778.663 12.5225C777.752 12.1533 777.109 11.7318 776.735 11.2578C776.362 10.7839 776.175 10.2142 776.175 9.54883C776.175 8.71484 776.471 8.05859 777.063 7.58008C777.656 7.10156 778.451 6.8623 779.449 6.8623C780.406 6.8623 781.359 7.07194 782.307 7.49121L781.787 8.82422C780.898 8.45052 780.105 8.26367 779.408 8.26367C778.88 8.26367 778.479 8.37988 778.205 8.6123C777.932 8.84017 777.795 9.14323 777.795 9.52148C777.795 9.78125 777.85 10.0046 777.959 10.1914C778.068 10.3737 778.248 10.5469 778.499 10.7109C778.75 10.875 779.201 11.0915 779.853 11.3604C780.586 11.6657 781.124 11.9505 781.466 12.2148C781.808 12.4792 782.058 12.7777 782.218 13.1104C782.377 13.443 782.457 13.835 782.457 14.2861ZM787.844 17H786.21V8.40723H783.271V7.00586H790.783V8.40723H787.844V17ZM797.975 17H792.321V7.00586H797.975V8.38672H793.955V11.1074H797.722V12.4746H793.955V15.6123H797.975V17ZM808.27 11.9072C808.27 13.557 807.812 14.8193 806.896 15.6943C805.979 16.5648 804.66 17 802.938 17H800.142V7.00586H803.231C804.822 7.00586 806.059 7.43424 806.943 8.29102C807.827 9.14779 808.27 10.3532 808.27 11.9072ZM806.547 11.9619C806.547 9.56934 805.428 8.37305 803.19 8.37305H801.775V15.626H802.938C805.344 15.626 806.547 14.4046 806.547 11.9619Z"
              fill="#4F4F4F"/>
    </g>
    <path d="M3.42188 44.3105C4.20312 44.3105 4.82227 44.4922 5.2793 44.8555C5.73633 45.2188 5.96484 45.7207 5.96484 46.3613C5.96484 46.7832 5.83398 47.168 5.57227 47.5156C5.31055 47.8633 4.89258 48.1797 4.31836 48.4648C5.01367 48.7969 5.50781 49.1465 5.80078 49.5137C6.09375 49.877 6.24023 50.2988 6.24023 50.7793C6.24023 51.4902 5.99219 52.0586 5.49609 52.4844C5 52.9062 4.32031 53.1172 3.45703 53.1172C2.54297 53.1172 1.83984 52.918 1.34766 52.5195C0.855469 52.1172 0.609375 51.5488 0.609375 50.8145C0.609375 49.834 1.20703 49.0703 2.40234 48.5234C1.86328 48.2188 1.47656 47.8906 1.24219 47.5391C1.00781 47.1836 0.890625 46.7871 0.890625 46.3496C0.890625 45.7285 1.11914 45.2344 1.57617 44.8672C2.03711 44.4961 2.65234 44.3105 3.42188 44.3105ZM1.57031 50.8379C1.57031 51.3066 1.73242 51.6719 2.05664 51.9336C2.38477 52.1953 2.84375 52.3262 3.43359 52.3262C4.01562 52.3262 4.46875 52.1895 4.79297 51.916C5.11719 51.6426 5.2793 51.2676 5.2793 50.791C5.2793 50.4121 5.12695 50.0762 4.82227 49.7832C4.51758 49.4863 3.98633 49.1992 3.22852 48.9219C2.64648 49.1719 2.22461 49.4492 1.96289 49.7539C1.70117 50.0547 1.57031 50.416 1.57031 50.8379ZM3.41016 45.1016C2.92188 45.1016 2.53906 45.2188 2.26172 45.4531C1.98438 45.6875 1.8457 46 1.8457 46.3906C1.8457 46.75 1.96094 47.0586 2.19141 47.3164C2.42188 47.5742 2.84766 47.832 3.46875 48.0898C4.02734 47.8555 4.42188 47.6035 4.65234 47.334C4.88672 47.0645 5.00391 46.75 5.00391 46.3906C5.00391 45.9961 4.86133 45.6836 4.57617 45.4531C4.29492 45.2188 3.90625 45.1016 3.41016 45.1016ZM13.1309 48.7051C13.1309 50.1855 12.8965 51.291 12.4277 52.0215C11.9629 52.752 11.25 53.1172 10.2891 53.1172C9.36719 53.1172 8.66602 52.7441 8.18555 51.998C7.70508 51.248 7.46484 50.1504 7.46484 48.7051C7.46484 47.2129 7.69727 46.1055 8.16211 45.3828C8.62695 44.6602 9.33594 44.2988 10.2891 44.2988C11.2188 44.2988 11.9238 44.6758 12.4043 45.4297C12.8887 46.1836 13.1309 47.2754 13.1309 48.7051ZM8.44922 48.7051C8.44922 49.9512 8.5957 50.8594 8.88867 51.4297C9.18164 51.9961 9.64844 52.2793 10.2891 52.2793C10.9375 52.2793 11.4062 51.9922 11.6953 51.418C11.9883 50.8398 12.1348 49.9355 12.1348 48.7051C12.1348 47.4746 11.9883 46.5742 11.6953 46.0039C11.4062 45.4297 10.9375 45.1426 10.2891 45.1426C9.64844 45.1426 9.18164 45.4258 8.88867 45.9922C8.5957 46.5547 8.44922 47.459 8.44922 48.7051ZM19.998 48.7051C19.998 50.1855 19.7637 51.291 19.2949 52.0215C18.8301 52.752 18.1172 53.1172 17.1562 53.1172C16.2344 53.1172 15.5332 52.7441 15.0527 51.998C14.5723 51.248 14.332 50.1504 14.332 48.7051C14.332 47.2129 14.5645 46.1055 15.0293 45.3828C15.4941 44.6602 16.2031 44.2988 17.1562 44.2988C18.0859 44.2988 18.791 44.6758 19.2715 45.4297C19.7559 46.1836 19.998 47.2754 19.998 48.7051ZM15.3164 48.7051C15.3164 49.9512 15.4629 50.8594 15.7559 51.4297C16.0488 51.9961 16.5156 52.2793 17.1562 52.2793C17.8047 52.2793 18.2734 51.9922 18.5625 51.418C18.8555 50.8398 19.002 49.9355 19.002 48.7051C19.002 47.4746 18.8555 46.5742 18.5625 46.0039C18.2734 45.4297 17.8047 45.1426 17.1562 45.1426C16.5156 45.1426 16.0488 45.4258 15.7559 45.9922C15.4629 46.5547 15.3164 47.459 15.3164 48.7051ZM26.8652 48.7051C26.8652 50.1855 26.6309 51.291 26.1621 52.0215C25.6973 52.752 24.9844 53.1172 24.0234 53.1172C23.1016 53.1172 22.4004 52.7441 21.9199 51.998C21.4395 51.248 21.1992 50.1504 21.1992 48.7051C21.1992 47.2129 21.4316 46.1055 21.8965 45.3828C22.3613 44.6602 23.0703 44.2988 24.0234 44.2988C24.9531 44.2988 25.6582 44.6758 26.1387 45.4297C26.623 46.1836 26.8652 47.2754 26.8652 48.7051ZM22.1836 48.7051C22.1836 49.9512 22.3301 50.8594 22.623 51.4297C22.916 51.9961 23.3828 52.2793 24.0234 52.2793C24.6719 52.2793 25.1406 51.9922 25.4297 51.418C25.7227 50.8398 25.8691 49.9355 25.8691 48.7051C25.8691 47.4746 25.7227 46.5742 25.4297 46.0039C25.1406 45.4297 24.6719 45.1426 24.0234 45.1426C23.3828 45.1426 22.916 45.4258 22.623 45.9922C22.3301 46.5547 22.1836 47.459 22.1836 48.7051ZM33.7324 48.7051C33.7324 50.1855 33.498 51.291 33.0293 52.0215C32.5645 52.752 31.8516 53.1172 30.8906 53.1172C29.9688 53.1172 29.2676 52.7441 28.7871 51.998C28.3066 51.248 28.0664 50.1504 28.0664 48.7051C28.0664 47.2129 28.2988 46.1055 28.7637 45.3828C29.2285 44.6602 29.9375 44.2988 30.8906 44.2988C31.8203 44.2988 32.5254 44.6758 33.0059 45.4297C33.4902 46.1836 33.7324 47.2754 33.7324 48.7051ZM29.0508 48.7051C29.0508 49.9512 29.1973 50.8594 29.4902 51.4297C29.7832 51.9961 30.25 52.2793 30.8906 52.2793C31.5391 52.2793 32.0078 51.9922 32.2969 51.418C32.5898 50.8398 32.7363 49.9355 32.7363 48.7051C32.7363 47.4746 32.5898 46.5742 32.2969 46.0039C32.0078 45.4297 31.5391 45.1426 30.8906 45.1426C30.25 45.1426 29.7832 45.4258 29.4902 45.9922C29.1973 46.5547 29.0508 47.459 29.0508 48.7051Z"
          fill="black" fill-opacity="0.7"/>
    <path d="M54 48.5H810" stroke="#D3D3D4"/>
    <path d="M1.66992 100L5.2207 92.3301H0.550781V91.4336H6.25195V92.2129L2.74805 100H1.66992ZM13.1309 95.7051C13.1309 97.1855 12.8965 98.291 12.4277 99.0215C11.9629 99.752 11.25 100.117 10.2891 100.117C9.36719 100.117 8.66602 99.7441 8.18555 98.998C7.70508 98.248 7.46484 97.1504 7.46484 95.7051C7.46484 94.2129 7.69727 93.1055 8.16211 92.3828C8.62695 91.6602 9.33594 91.2988 10.2891 91.2988C11.2188 91.2988 11.9238 91.6758 12.4043 92.4297C12.8887 93.1836 13.1309 94.2754 13.1309 95.7051ZM8.44922 95.7051C8.44922 96.9512 8.5957 97.8594 8.88867 98.4297C9.18164 98.9961 9.64844 99.2793 10.2891 99.2793C10.9375 99.2793 11.4062 98.9922 11.6953 98.418C11.9883 97.8398 12.1348 96.9355 12.1348 95.7051C12.1348 94.4746 11.9883 93.5742 11.6953 93.0039C11.4062 92.4297 10.9375 92.1426 10.2891 92.1426C9.64844 92.1426 9.18164 92.4258 8.88867 92.9922C8.5957 93.5547 8.44922 94.459 8.44922 95.7051ZM19.998 95.7051C19.998 97.1855 19.7637 98.291 19.2949 99.0215C18.8301 99.752 18.1172 100.117 17.1562 100.117C16.2344 100.117 15.5332 99.7441 15.0527 98.998C14.5723 98.248 14.332 97.1504 14.332 95.7051C14.332 94.2129 14.5645 93.1055 15.0293 92.3828C15.4941 91.6602 16.2031 91.2988 17.1562 91.2988C18.0859 91.2988 18.791 91.6758 19.2715 92.4297C19.7559 93.1836 19.998 94.2754 19.998 95.7051ZM15.3164 95.7051C15.3164 96.9512 15.4629 97.8594 15.7559 98.4297C16.0488 98.9961 16.5156 99.2793 17.1562 99.2793C17.8047 99.2793 18.2734 98.9922 18.5625 98.418C18.8555 97.8398 19.002 96.9355 19.002 95.7051C19.002 94.4746 18.8555 93.5742 18.5625 93.0039C18.2734 92.4297 17.8047 92.1426 17.1562 92.1426C16.5156 92.1426 16.0488 92.4258 15.7559 92.9922C15.4629 93.5547 15.3164 94.459 15.3164 95.7051ZM26.8652 95.7051C26.8652 97.1855 26.6309 98.291 26.1621 99.0215C25.6973 99.752 24.9844 100.117 24.0234 100.117C23.1016 100.117 22.4004 99.7441 21.9199 98.998C21.4395 98.248 21.1992 97.1504 21.1992 95.7051C21.1992 94.2129 21.4316 93.1055 21.8965 92.3828C22.3613 91.6602 23.0703 91.2988 24.0234 91.2988C24.9531 91.2988 25.6582 91.6758 26.1387 92.4297C26.623 93.1836 26.8652 94.2754 26.8652 95.7051ZM22.1836 95.7051C22.1836 96.9512 22.3301 97.8594 22.623 98.4297C22.916 98.9961 23.3828 99.2793 24.0234 99.2793C24.6719 99.2793 25.1406 98.9922 25.4297 98.418C25.7227 97.8398 25.8691 96.9355 25.8691 95.7051C25.8691 94.4746 25.7227 93.5742 25.4297 93.0039C25.1406 92.4297 24.6719 92.1426 24.0234 92.1426C23.3828 92.1426 22.916 92.4258 22.623 92.9922C22.3301 93.5547 22.1836 94.459 22.1836 95.7051ZM33.7324 95.7051C33.7324 97.1855 33.498 98.291 33.0293 99.0215C32.5645 99.752 31.8516 100.117 30.8906 100.117C29.9688 100.117 29.2676 99.7441 28.7871 98.998C28.3066 98.248 28.0664 97.1504 28.0664 95.7051C28.0664 94.2129 28.2988 93.1055 28.7637 92.3828C29.2285 91.6602 29.9375 91.2988 30.8906 91.2988C31.8203 91.2988 32.5254 91.6758 33.0059 92.4297C33.4902 93.1836 33.7324 94.2754 33.7324 95.7051ZM29.0508 95.7051C29.0508 96.9512 29.1973 97.8594 29.4902 98.4297C29.7832 98.9961 30.25 99.2793 30.8906 99.2793C31.5391 99.2793 32.0078 98.9922 32.2969 98.418C32.5898 97.8398 32.7363 96.9355 32.7363 95.7051C32.7363 94.4746 32.5898 93.5742 32.2969 93.0039C32.0078 92.4297 31.5391 92.1426 30.8906 92.1426C30.25 92.1426 29.7832 92.4258 29.4902 92.9922C29.1973 93.5547 29.0508 94.459 29.0508 95.7051Z"
          fill="black" fill-opacity="0.7"/>
    <path d="M54 95.5H810" stroke="#D3D3D4"/>
    <path d="M0.685547 143.338C0.685547 141.654 1.01172 140.396 1.66406 139.564C2.32031 138.729 3.28906 138.311 4.57031 138.311C5.01172 138.311 5.35938 138.348 5.61328 138.422V139.26C5.3125 139.162 4.96875 139.113 4.58203 139.113C3.66406 139.113 2.96289 139.4 2.47852 139.975C1.99414 140.545 1.72852 141.443 1.68164 142.67H1.75195C2.18164 141.998 2.86133 141.662 3.79102 141.662C4.56055 141.662 5.16602 141.895 5.60742 142.359C6.05273 142.824 6.27539 143.455 6.27539 144.252C6.27539 145.143 6.03125 145.844 5.54297 146.355C5.05859 146.863 4.40234 147.117 3.57422 147.117C2.6875 147.117 1.98438 146.785 1.46484 146.121C0.945312 145.453 0.685547 144.525 0.685547 143.338ZM3.5625 146.291C4.11719 146.291 4.54688 146.117 4.85156 145.77C5.16016 145.418 5.31445 144.912 5.31445 144.252C5.31445 143.686 5.17188 143.24 4.88672 142.916C4.60156 142.592 4.17578 142.43 3.60938 142.43C3.25781 142.43 2.93555 142.502 2.64258 142.646C2.34961 142.791 2.11523 142.99 1.93945 143.244C1.76758 143.498 1.68164 143.762 1.68164 144.035C1.68164 144.438 1.75977 144.812 1.91602 145.16C2.07227 145.508 2.29297 145.783 2.57812 145.986C2.86719 146.189 3.19531 146.291 3.5625 146.291ZM13.1309 142.705C13.1309 144.186 12.8965 145.291 12.4277 146.021C11.9629 146.752 11.25 147.117 10.2891 147.117C9.36719 147.117 8.66602 146.744 8.18555 145.998C7.70508 145.248 7.46484 144.15 7.46484 142.705C7.46484 141.213 7.69727 140.105 8.16211 139.383C8.62695 138.66 9.33594 138.299 10.2891 138.299C11.2188 138.299 11.9238 138.676 12.4043 139.43C12.8887 140.184 13.1309 141.275 13.1309 142.705ZM8.44922 142.705C8.44922 143.951 8.5957 144.859 8.88867 145.43C9.18164 145.996 9.64844 146.279 10.2891 146.279C10.9375 146.279 11.4062 145.992 11.6953 145.418C11.9883 144.84 12.1348 143.936 12.1348 142.705C12.1348 141.475 11.9883 140.574 11.6953 140.004C11.4062 139.43 10.9375 139.143 10.2891 139.143C9.64844 139.143 9.18164 139.426 8.88867 139.992C8.5957 140.555 8.44922 141.459 8.44922 142.705ZM19.998 142.705C19.998 144.186 19.7637 145.291 19.2949 146.021C18.8301 146.752 18.1172 147.117 17.1562 147.117C16.2344 147.117 15.5332 146.744 15.0527 145.998C14.5723 145.248 14.332 144.15 14.332 142.705C14.332 141.213 14.5645 140.105 15.0293 139.383C15.4941 138.66 16.2031 138.299 17.1562 138.299C18.0859 138.299 18.791 138.676 19.2715 139.43C19.7559 140.184 19.998 141.275 19.998 142.705ZM15.3164 142.705C15.3164 143.951 15.4629 144.859 15.7559 145.43C16.0488 145.996 16.5156 146.279 17.1562 146.279C17.8047 146.279 18.2734 145.992 18.5625 145.418C18.8555 144.84 19.002 143.936 19.002 142.705C19.002 141.475 18.8555 140.574 18.5625 140.004C18.2734 139.43 17.8047 139.143 17.1562 139.143C16.5156 139.143 16.0488 139.426 15.7559 139.992C15.4629 140.555 15.3164 141.459 15.3164 142.705ZM26.8652 142.705C26.8652 144.186 26.6309 145.291 26.1621 146.021C25.6973 146.752 24.9844 147.117 24.0234 147.117C23.1016 147.117 22.4004 146.744 21.9199 145.998C21.4395 145.248 21.1992 144.15 21.1992 142.705C21.1992 141.213 21.4316 140.105 21.8965 139.383C22.3613 138.66 23.0703 138.299 24.0234 138.299C24.9531 138.299 25.6582 138.676 26.1387 139.43C26.623 140.184 26.8652 141.275 26.8652 142.705ZM22.1836 142.705C22.1836 143.951 22.3301 144.859 22.623 145.43C22.916 145.996 23.3828 146.279 24.0234 146.279C24.6719 146.279 25.1406 145.992 25.4297 145.418C25.7227 144.84 25.8691 143.936 25.8691 142.705C25.8691 141.475 25.7227 140.574 25.4297 140.004C25.1406 139.43 24.6719 139.143 24.0234 139.143C23.3828 139.143 22.916 139.426 22.623 139.992C22.3301 140.555 22.1836 141.459 22.1836 142.705ZM33.7324 142.705C33.7324 144.186 33.498 145.291 33.0293 146.021C32.5645 146.752 31.8516 147.117 30.8906 147.117C29.9688 147.117 29.2676 146.744 28.7871 145.998C28.3066 145.248 28.0664 144.15 28.0664 142.705C28.0664 141.213 28.2988 140.105 28.7637 139.383C29.2285 138.66 29.9375 138.299 30.8906 138.299C31.8203 138.299 32.5254 138.676 33.0059 139.43C33.4902 140.184 33.7324 141.275 33.7324 142.705ZM29.0508 142.705C29.0508 143.951 29.1973 144.859 29.4902 145.43C29.7832 145.996 30.25 146.279 30.8906 146.279C31.5391 146.279 32.0078 145.992 32.2969 145.418C32.5898 144.84 32.7363 143.936 32.7363 142.705C32.7363 141.475 32.5898 140.574 32.2969 140.004C32.0078 139.43 31.5391 139.143 30.8906 139.143C30.25 139.143 29.7832 139.426 29.4902 139.992C29.1973 140.555 29.0508 141.459 29.0508 142.705Z"
          fill="black" fill-opacity="0.7"/>
    <path d="M54 142.5H810" stroke="#D3D3D4"/>
    <path d="M3.26367 188.768C4.16602 188.768 4.875 188.992 5.39062 189.441C5.91016 189.887 6.16992 190.498 6.16992 191.275C6.16992 192.162 5.88672 192.857 5.32031 193.361C4.75781 193.865 3.98047 194.117 2.98828 194.117C2.02344 194.117 1.28711 193.963 0.779297 193.654V192.717C1.05273 192.893 1.39258 193.031 1.79883 193.133C2.20508 193.23 2.60547 193.279 3 193.279C3.6875 193.279 4.2207 193.117 4.59961 192.793C4.98242 192.469 5.17383 192 5.17383 191.387C5.17383 190.191 4.44141 189.594 2.97656 189.594C2.60547 189.594 2.10938 189.65 1.48828 189.764L0.984375 189.441L1.30664 185.434H5.56641V186.33H2.13867L1.92188 188.902C2.37109 188.812 2.81836 188.768 3.26367 188.768ZM13.1309 189.705C13.1309 191.186 12.8965 192.291 12.4277 193.021C11.9629 193.752 11.25 194.117 10.2891 194.117C9.36719 194.117 8.66602 193.744 8.18555 192.998C7.70508 192.248 7.46484 191.15 7.46484 189.705C7.46484 188.213 7.69727 187.105 8.16211 186.383C8.62695 185.66 9.33594 185.299 10.2891 185.299C11.2188 185.299 11.9238 185.676 12.4043 186.43C12.8887 187.184 13.1309 188.275 13.1309 189.705ZM8.44922 189.705C8.44922 190.951 8.5957 191.859 8.88867 192.43C9.18164 192.996 9.64844 193.279 10.2891 193.279C10.9375 193.279 11.4062 192.992 11.6953 192.418C11.9883 191.84 12.1348 190.936 12.1348 189.705C12.1348 188.475 11.9883 187.574 11.6953 187.004C11.4062 186.43 10.9375 186.143 10.2891 186.143C9.64844 186.143 9.18164 186.426 8.88867 186.992C8.5957 187.555 8.44922 188.459 8.44922 189.705ZM19.998 189.705C19.998 191.186 19.7637 192.291 19.2949 193.021C18.8301 193.752 18.1172 194.117 17.1562 194.117C16.2344 194.117 15.5332 193.744 15.0527 192.998C14.5723 192.248 14.332 191.15 14.332 189.705C14.332 188.213 14.5645 187.105 15.0293 186.383C15.4941 185.66 16.2031 185.299 17.1562 185.299C18.0859 185.299 18.791 185.676 19.2715 186.43C19.7559 187.184 19.998 188.275 19.998 189.705ZM15.3164 189.705C15.3164 190.951 15.4629 191.859 15.7559 192.43C16.0488 192.996 16.5156 193.279 17.1562 193.279C17.8047 193.279 18.2734 192.992 18.5625 192.418C18.8555 191.84 19.002 190.936 19.002 189.705C19.002 188.475 18.8555 187.574 18.5625 187.004C18.2734 186.43 17.8047 186.143 17.1562 186.143C16.5156 186.143 16.0488 186.426 15.7559 186.992C15.4629 187.555 15.3164 188.459 15.3164 189.705ZM26.8652 189.705C26.8652 191.186 26.6309 192.291 26.1621 193.021C25.6973 193.752 24.9844 194.117 24.0234 194.117C23.1016 194.117 22.4004 193.744 21.9199 192.998C21.4395 192.248 21.1992 191.15 21.1992 189.705C21.1992 188.213 21.4316 187.105 21.8965 186.383C22.3613 185.66 23.0703 185.299 24.0234 185.299C24.9531 185.299 25.6582 185.676 26.1387 186.43C26.623 187.184 26.8652 188.275 26.8652 189.705ZM22.1836 189.705C22.1836 190.951 22.3301 191.859 22.623 192.43C22.916 192.996 23.3828 193.279 24.0234 193.279C24.6719 193.279 25.1406 192.992 25.4297 192.418C25.7227 191.84 25.8691 190.936 25.8691 189.705C25.8691 188.475 25.7227 187.574 25.4297 187.004C25.1406 186.43 24.6719 186.143 24.0234 186.143C23.3828 186.143 22.916 186.426 22.623 186.992C22.3301 187.555 22.1836 188.459 22.1836 189.705ZM33.7324 189.705C33.7324 191.186 33.498 192.291 33.0293 193.021C32.5645 193.752 31.8516 194.117 30.8906 194.117C29.9688 194.117 29.2676 193.744 28.7871 192.998C28.3066 192.248 28.0664 191.15 28.0664 189.705C28.0664 188.213 28.2988 187.105 28.7637 186.383C29.2285 185.66 29.9375 185.299 30.8906 185.299C31.8203 185.299 32.5254 185.676 33.0059 186.43C33.4902 187.184 33.7324 188.275 33.7324 189.705ZM29.0508 189.705C29.0508 190.951 29.1973 191.859 29.4902 192.43C29.7832 192.996 30.25 193.279 30.8906 193.279C31.5391 193.279 32.0078 192.992 32.2969 192.418C32.5898 191.84 32.7363 190.936 32.7363 189.705C32.7363 188.475 32.5898 187.574 32.2969 187.004C32.0078 186.43 31.5391 186.143 30.8906 186.143C30.25 186.143 29.7832 186.426 29.4902 186.992C29.1973 187.555 29.0508 188.459 29.0508 189.705Z"
          fill="black" fill-opacity="0.7"/>
    <path d="M54 189.5H810" stroke="#D3D3D4"/>
    <path d="M6.62109 239.031H5.34961V241H4.41797V239.031H0.251953V238.182L4.31836 232.387H5.34961V238.146H6.62109V239.031ZM4.41797 238.146V235.299C4.41797 234.74 4.4375 234.109 4.47656 233.406H4.42969C4.24219 233.781 4.06641 234.092 3.90234 234.338L1.22461 238.146H4.41797ZM13.1309 236.705C13.1309 238.186 12.8965 239.291 12.4277 240.021C11.9629 240.752 11.25 241.117 10.2891 241.117C9.36719 241.117 8.66602 240.744 8.18555 239.998C7.70508 239.248 7.46484 238.15 7.46484 236.705C7.46484 235.213 7.69727 234.105 8.16211 233.383C8.62695 232.66 9.33594 232.299 10.2891 232.299C11.2188 232.299 11.9238 232.676 12.4043 233.43C12.8887 234.184 13.1309 235.275 13.1309 236.705ZM8.44922 236.705C8.44922 237.951 8.5957 238.859 8.88867 239.43C9.18164 239.996 9.64844 240.279 10.2891 240.279C10.9375 240.279 11.4062 239.992 11.6953 239.418C11.9883 238.84 12.1348 237.936 12.1348 236.705C12.1348 235.475 11.9883 234.574 11.6953 234.004C11.4062 233.43 10.9375 233.143 10.2891 233.143C9.64844 233.143 9.18164 233.426 8.88867 233.992C8.5957 234.555 8.44922 235.459 8.44922 236.705ZM19.998 236.705C19.998 238.186 19.7637 239.291 19.2949 240.021C18.8301 240.752 18.1172 241.117 17.1562 241.117C16.2344 241.117 15.5332 240.744 15.0527 239.998C14.5723 239.248 14.332 238.15 14.332 236.705C14.332 235.213 14.5645 234.105 15.0293 233.383C15.4941 232.66 16.2031 232.299 17.1562 232.299C18.0859 232.299 18.791 232.676 19.2715 233.43C19.7559 234.184 19.998 235.275 19.998 236.705ZM15.3164 236.705C15.3164 237.951 15.4629 238.859 15.7559 239.43C16.0488 239.996 16.5156 240.279 17.1562 240.279C17.8047 240.279 18.2734 239.992 18.5625 239.418C18.8555 238.84 19.002 237.936 19.002 236.705C19.002 235.475 18.8555 234.574 18.5625 234.004C18.2734 233.43 17.8047 233.143 17.1562 233.143C16.5156 233.143 16.0488 233.426 15.7559 233.992C15.4629 234.555 15.3164 235.459 15.3164 236.705ZM26.8652 236.705C26.8652 238.186 26.6309 239.291 26.1621 240.021C25.6973 240.752 24.9844 241.117 24.0234 241.117C23.1016 241.117 22.4004 240.744 21.9199 239.998C21.4395 239.248 21.1992 238.15 21.1992 236.705C21.1992 235.213 21.4316 234.105 21.8965 233.383C22.3613 232.66 23.0703 232.299 24.0234 232.299C24.9531 232.299 25.6582 232.676 26.1387 233.43C26.623 234.184 26.8652 235.275 26.8652 236.705ZM22.1836 236.705C22.1836 237.951 22.3301 238.859 22.623 239.43C22.916 239.996 23.3828 240.279 24.0234 240.279C24.6719 240.279 25.1406 239.992 25.4297 239.418C25.7227 238.84 25.8691 237.936 25.8691 236.705C25.8691 235.475 25.7227 234.574 25.4297 234.004C25.1406 233.43 24.6719 233.143 24.0234 233.143C23.3828 233.143 22.916 233.426 22.623 233.992C22.3301 234.555 22.1836 235.459 22.1836 236.705ZM33.7324 236.705C33.7324 238.186 33.498 239.291 33.0293 240.021C32.5645 240.752 31.8516 241.117 30.8906 241.117C29.9688 241.117 29.2676 240.744 28.7871 239.998C28.3066 239.248 28.0664 238.15 28.0664 236.705C28.0664 235.213 28.2988 234.105 28.7637 233.383C29.2285 232.66 29.9375 232.299 30.8906 232.299C31.8203 232.299 32.5254 232.676 33.0059 233.43C33.4902 234.184 33.7324 235.275 33.7324 236.705ZM29.0508 236.705C29.0508 237.951 29.1973 238.859 29.4902 239.43C29.7832 239.996 30.25 240.279 30.8906 240.279C31.5391 240.279 32.0078 239.992 32.2969 239.418C32.5898 238.84 32.7363 237.936 32.7363 236.705C32.7363 235.475 32.5898 234.574 32.2969 234.004C32.0078 233.43 31.5391 233.143 30.8906 233.143C30.25 233.143 29.7832 233.426 29.4902 233.992C29.1973 234.555 29.0508 235.459 29.0508 236.705Z"
          fill="black" fill-opacity="0.7"/>
    <path d="M54 236.5H810" stroke="#D3D3D4"/>
    <path d="M5.89453 281.449C5.89453 281.996 5.74023 282.443 5.43164 282.791C5.12695 283.139 4.69336 283.371 4.13086 283.488V283.535C4.81836 283.621 5.32812 283.84 5.66016 284.191C5.99219 284.543 6.1582 285.004 6.1582 285.574C6.1582 286.391 5.875 287.02 5.30859 287.461C4.74219 287.898 3.9375 288.117 2.89453 288.117C2.44141 288.117 2.02539 288.082 1.64648 288.012C1.27148 287.945 0.90625 287.826 0.550781 287.654V286.729C0.921875 286.912 1.31641 287.053 1.73438 287.15C2.15625 287.244 2.55469 287.291 2.92969 287.291C4.41016 287.291 5.15039 286.711 5.15039 285.551C5.15039 284.512 4.33398 283.992 2.70117 283.992H1.85742V283.154H2.71289C3.38086 283.154 3.91016 283.008 4.30078 282.715C4.69141 282.418 4.88672 282.008 4.88672 281.484C4.88672 281.066 4.74219 280.738 4.45312 280.5C4.16797 280.262 3.7793 280.143 3.28711 280.143C2.91211 280.143 2.55859 280.193 2.22656 280.295C1.89453 280.396 1.51562 280.584 1.08984 280.857L0.597656 280.201C0.949219 279.924 1.35352 279.707 1.81055 279.551C2.27148 279.391 2.75586 279.311 3.26367 279.311C4.0957 279.311 4.74219 279.502 5.20312 279.885C5.66406 280.264 5.89453 280.785 5.89453 281.449ZM13.1309 283.705C13.1309 285.186 12.8965 286.291 12.4277 287.021C11.9629 287.752 11.25 288.117 10.2891 288.117C9.36719 288.117 8.66602 287.744 8.18555 286.998C7.70508 286.248 7.46484 285.15 7.46484 283.705C7.46484 282.213 7.69727 281.105 8.16211 280.383C8.62695 279.66 9.33594 279.299 10.2891 279.299C11.2188 279.299 11.9238 279.676 12.4043 280.43C12.8887 281.184 13.1309 282.275 13.1309 283.705ZM8.44922 283.705C8.44922 284.951 8.5957 285.859 8.88867 286.43C9.18164 286.996 9.64844 287.279 10.2891 287.279C10.9375 287.279 11.4062 286.992 11.6953 286.418C11.9883 285.84 12.1348 284.936 12.1348 283.705C12.1348 282.475 11.9883 281.574 11.6953 281.004C11.4062 280.43 10.9375 280.143 10.2891 280.143C9.64844 280.143 9.18164 280.426 8.88867 280.992C8.5957 281.555 8.44922 282.459 8.44922 283.705ZM19.998 283.705C19.998 285.186 19.7637 286.291 19.2949 287.021C18.8301 287.752 18.1172 288.117 17.1562 288.117C16.2344 288.117 15.5332 287.744 15.0527 286.998C14.5723 286.248 14.332 285.15 14.332 283.705C14.332 282.213 14.5645 281.105 15.0293 280.383C15.4941 279.66 16.2031 279.299 17.1562 279.299C18.0859 279.299 18.791 279.676 19.2715 280.43C19.7559 281.184 19.998 282.275 19.998 283.705ZM15.3164 283.705C15.3164 284.951 15.4629 285.859 15.7559 286.43C16.0488 286.996 16.5156 287.279 17.1562 287.279C17.8047 287.279 18.2734 286.992 18.5625 286.418C18.8555 285.84 19.002 284.936 19.002 283.705C19.002 282.475 18.8555 281.574 18.5625 281.004C18.2734 280.43 17.8047 280.143 17.1562 280.143C16.5156 280.143 16.0488 280.426 15.7559 280.992C15.4629 281.555 15.3164 282.459 15.3164 283.705ZM26.8652 283.705C26.8652 285.186 26.6309 286.291 26.1621 287.021C25.6973 287.752 24.9844 288.117 24.0234 288.117C23.1016 288.117 22.4004 287.744 21.9199 286.998C21.4395 286.248 21.1992 285.15 21.1992 283.705C21.1992 282.213 21.4316 281.105 21.8965 280.383C22.3613 279.66 23.0703 279.299 24.0234 279.299C24.9531 279.299 25.6582 279.676 26.1387 280.43C26.623 281.184 26.8652 282.275 26.8652 283.705ZM22.1836 283.705C22.1836 284.951 22.3301 285.859 22.623 286.43C22.916 286.996 23.3828 287.279 24.0234 287.279C24.6719 287.279 25.1406 286.992 25.4297 286.418C25.7227 285.84 25.8691 284.936 25.8691 283.705C25.8691 282.475 25.7227 281.574 25.4297 281.004C25.1406 280.43 24.6719 280.143 24.0234 280.143C23.3828 280.143 22.916 280.426 22.623 280.992C22.3301 281.555 22.1836 282.459 22.1836 283.705ZM33.7324 283.705C33.7324 285.186 33.498 286.291 33.0293 287.021C32.5645 287.752 31.8516 288.117 30.8906 288.117C29.9688 288.117 29.2676 287.744 28.7871 286.998C28.3066 286.248 28.0664 285.15 28.0664 283.705C28.0664 282.213 28.2988 281.105 28.7637 280.383C29.2285 279.66 29.9375 279.299 30.8906 279.299C31.8203 279.299 32.5254 279.676 33.0059 280.43C33.4902 281.184 33.7324 282.275 33.7324 283.705ZM29.0508 283.705C29.0508 284.951 29.1973 285.859 29.4902 286.43C29.7832 286.996 30.25 287.279 30.8906 287.279C31.5391 287.279 32.0078 286.992 32.2969 286.418C32.5898 285.84 32.7363 284.936 32.7363 283.705C32.7363 282.475 32.5898 281.574 32.2969 281.004C32.0078 280.43 31.5391 280.143 30.8906 280.143C30.25 280.143 29.7832 280.426 29.4902 280.992C29.1973 281.555 29.0508 282.459 29.0508 283.705Z"
          fill="black" fill-opacity="0.7"/>
    <path d="M54 283.5H810" stroke="#D3D3D4"/>
    <path d="M6.2168 335H0.585938V334.162L2.8418 331.895C3.5293 331.199 3.98242 330.703 4.20117 330.406C4.41992 330.109 4.58398 329.82 4.69336 329.539C4.80273 329.258 4.85742 328.955 4.85742 328.631C4.85742 328.174 4.71875 327.812 4.44141 327.547C4.16406 327.277 3.7793 327.143 3.28711 327.143C2.93164 327.143 2.59375 327.201 2.27344 327.318C1.95703 327.436 1.60352 327.648 1.21289 327.957L0.697266 327.295C1.48633 326.639 2.3457 326.311 3.27539 326.311C4.08008 326.311 4.71094 326.518 5.16797 326.932C5.625 327.342 5.85352 327.895 5.85352 328.59C5.85352 329.133 5.70117 329.67 5.39648 330.201C5.0918 330.732 4.52148 331.404 3.68555 332.217L1.81055 334.051V334.098H6.2168V335ZM13.1309 330.705C13.1309 332.186 12.8965 333.291 12.4277 334.021C11.9629 334.752 11.25 335.117 10.2891 335.117C9.36719 335.117 8.66602 334.744 8.18555 333.998C7.70508 333.248 7.46484 332.15 7.46484 330.705C7.46484 329.213 7.69727 328.105 8.16211 327.383C8.62695 326.66 9.33594 326.299 10.2891 326.299C11.2188 326.299 11.9238 326.676 12.4043 327.43C12.8887 328.184 13.1309 329.275 13.1309 330.705ZM8.44922 330.705C8.44922 331.951 8.5957 332.859 8.88867 333.43C9.18164 333.996 9.64844 334.279 10.2891 334.279C10.9375 334.279 11.4062 333.992 11.6953 333.418C11.9883 332.84 12.1348 331.936 12.1348 330.705C12.1348 329.475 11.9883 328.574 11.6953 328.004C11.4062 327.43 10.9375 327.143 10.2891 327.143C9.64844 327.143 9.18164 327.426 8.88867 327.992C8.5957 328.555 8.44922 329.459 8.44922 330.705ZM19.998 330.705C19.998 332.186 19.7637 333.291 19.2949 334.021C18.8301 334.752 18.1172 335.117 17.1562 335.117C16.2344 335.117 15.5332 334.744 15.0527 333.998C14.5723 333.248 14.332 332.15 14.332 330.705C14.332 329.213 14.5645 328.105 15.0293 327.383C15.4941 326.66 16.2031 326.299 17.1562 326.299C18.0859 326.299 18.791 326.676 19.2715 327.43C19.7559 328.184 19.998 329.275 19.998 330.705ZM15.3164 330.705C15.3164 331.951 15.4629 332.859 15.7559 333.43C16.0488 333.996 16.5156 334.279 17.1562 334.279C17.8047 334.279 18.2734 333.992 18.5625 333.418C18.8555 332.84 19.002 331.936 19.002 330.705C19.002 329.475 18.8555 328.574 18.5625 328.004C18.2734 327.43 17.8047 327.143 17.1562 327.143C16.5156 327.143 16.0488 327.426 15.7559 327.992C15.4629 328.555 15.3164 329.459 15.3164 330.705ZM26.8652 330.705C26.8652 332.186 26.6309 333.291 26.1621 334.021C25.6973 334.752 24.9844 335.117 24.0234 335.117C23.1016 335.117 22.4004 334.744 21.9199 333.998C21.4395 333.248 21.1992 332.15 21.1992 330.705C21.1992 329.213 21.4316 328.105 21.8965 327.383C22.3613 326.66 23.0703 326.299 24.0234 326.299C24.9531 326.299 25.6582 326.676 26.1387 327.43C26.623 328.184 26.8652 329.275 26.8652 330.705ZM22.1836 330.705C22.1836 331.951 22.3301 332.859 22.623 333.43C22.916 333.996 23.3828 334.279 24.0234 334.279C24.6719 334.279 25.1406 333.992 25.4297 333.418C25.7227 332.84 25.8691 331.936 25.8691 330.705C25.8691 329.475 25.7227 328.574 25.4297 328.004C25.1406 327.43 24.6719 327.143 24.0234 327.143C23.3828 327.143 22.916 327.426 22.623 327.992C22.3301 328.555 22.1836 329.459 22.1836 330.705ZM33.7324 330.705C33.7324 332.186 33.498 333.291 33.0293 334.021C32.5645 334.752 31.8516 335.117 30.8906 335.117C29.9688 335.117 29.2676 334.744 28.7871 333.998C28.3066 333.248 28.0664 332.15 28.0664 330.705C28.0664 329.213 28.2988 328.105 28.7637 327.383C29.2285 326.66 29.9375 326.299 30.8906 326.299C31.8203 326.299 32.5254 326.676 33.0059 327.43C33.4902 328.184 33.7324 329.275 33.7324 330.705ZM29.0508 330.705C29.0508 331.951 29.1973 332.859 29.4902 333.43C29.7832 333.996 30.25 334.279 30.8906 334.279C31.5391 334.279 32.0078 333.992 32.2969 333.418C32.5898 332.84 32.7363 331.936 32.7363 330.705C32.7363 329.475 32.5898 328.574 32.2969 328.004C32.0078 327.43 31.5391 327.143 30.8906 327.143C30.25 327.143 29.7832 327.426 29.4902 327.992C29.1973 328.555 29.0508 329.459 29.0508 330.705Z"
          fill="black" fill-opacity="0.7"/>
    <path d="M54 330.5H810" stroke="#D3D3D4"/>
    <path d="M84.0385 330V336" stroke="#D3D3D4"/>
    <path d="M72.2904 352H71.3412V345.895C71.3412 345.387 71.3568 344.906 71.3881 344.453C71.306 344.535 71.2142 344.621 71.1127 344.711C71.0111 344.801 70.5463 345.182 69.7181 345.854L69.2025 345.186L71.4701 343.434H72.2904V352ZM81.1849 352H75.5541V351.162L77.8099 348.895C78.4974 348.199 78.9506 347.703 79.1693 347.406C79.3881 347.109 79.5521 346.82 79.6615 346.539C79.7709 346.258 79.8256 345.955 79.8256 345.631C79.8256 345.174 79.6869 344.812 79.4095 344.547C79.1322 344.277 78.7474 344.143 78.2552 344.143C77.8998 344.143 77.5619 344.201 77.2416 344.318C76.9252 344.436 76.5717 344.648 76.181 344.957L75.6654 344.295C76.4545 343.639 77.3138 343.311 78.2435 343.311C79.0482 343.311 79.6791 343.518 80.1361 343.932C80.5931 344.342 80.8217 344.895 80.8217 345.59C80.8217 346.133 80.6693 346.67 80.3646 347.201C80.0599 347.732 79.4896 348.404 78.6537 349.217L76.7787 351.051V351.098H81.1849V352ZM86.1185 343.434L82.9252 352H81.9525L85.1459 343.434H86.1185ZM92.4584 352H86.8275V351.162L89.0834 348.895C89.7709 348.199 90.224 347.703 90.4427 347.406C90.6615 347.109 90.8256 346.82 90.9349 346.539C91.0443 346.258 91.099 345.955 91.099 345.631C91.099 345.174 90.9603 344.812 90.683 344.547C90.4056 344.277 90.0209 344.143 89.5287 344.143C89.1732 344.143 88.8353 344.201 88.515 344.318C88.1986 344.436 87.8451 344.648 87.4545 344.957L86.9388 344.295C87.7279 343.639 88.5873 343.311 89.517 343.311C90.3217 343.311 90.9525 343.518 91.4095 343.932C91.8666 344.342 92.0951 344.895 92.0951 345.59C92.0951 346.133 91.9427 346.67 91.6381 347.201C91.3334 347.732 90.7631 348.404 89.9271 349.217L88.0521 351.051V351.098H92.4584V352ZM99.0033 345.449C99.0033 345.996 98.849 346.443 98.5404 346.791C98.2357 347.139 97.8021 347.371 97.2396 347.488V347.535C97.9271 347.621 98.4369 347.84 98.7689 348.191C99.101 348.543 99.267 349.004 99.267 349.574C99.267 350.391 98.9838 351.02 98.4174 351.461C97.851 351.898 97.0463 352.117 96.0033 352.117C95.5502 352.117 95.1342 352.082 94.7552 352.012C94.3802 351.945 94.015 351.826 93.6595 351.654V350.729C94.0306 350.912 94.4252 351.053 94.8431 351.15C95.265 351.244 95.6635 351.291 96.0385 351.291C97.5189 351.291 98.2592 350.711 98.2592 349.551C98.2592 348.512 97.4427 347.992 95.8099 347.992H94.9662V347.154H95.8217C96.4896 347.154 97.0189 347.008 97.4095 346.715C97.8002 346.418 97.9955 346.008 97.9955 345.484C97.9955 345.066 97.851 344.738 97.5619 344.5C97.2767 344.262 96.8881 344.143 96.3959 344.143C96.0209 344.143 95.6674 344.193 95.3353 344.295C95.0033 344.396 94.6244 344.584 94.1986 344.857L93.7064 344.201C94.058 343.924 94.4623 343.707 94.9193 343.551C95.3802 343.391 95.8646 343.311 96.3724 343.311C97.2045 343.311 97.851 343.502 98.3119 343.885C98.7728 344.264 99.0033 344.785 99.0033 345.449Z"
          fill="black" fill-opacity="0.7"/>
    <path d="M142.115 330V336" stroke="#D3D3D4"/>
    <path d="M132.442 347.705C132.442 349.186 132.207 350.291 131.738 351.021C131.274 351.752 130.561 352.117 129.6 352.117C128.678 352.117 127.977 351.744 127.496 350.998C127.016 350.248 126.776 349.15 126.776 347.705C126.776 346.213 127.008 345.105 127.473 344.383C127.938 343.66 128.647 343.299 129.6 343.299C130.529 343.299 131.234 343.676 131.715 344.43C132.199 345.184 132.442 346.275 132.442 347.705ZM127.76 347.705C127.76 348.951 127.906 349.859 128.199 350.43C128.492 350.996 128.959 351.279 129.6 351.279C130.248 351.279 130.717 350.992 131.006 350.418C131.299 349.84 131.445 348.936 131.445 347.705C131.445 346.475 131.299 345.574 131.006 345.004C130.717 344.43 130.248 344.143 129.6 344.143C128.959 344.143 128.492 344.426 128.199 344.992C127.906 345.555 127.76 346.459 127.76 347.705ZM137.234 352H136.285V345.895C136.285 345.387 136.301 344.906 136.332 344.453C136.25 344.535 136.158 344.621 136.057 344.711C135.955 344.801 135.49 345.182 134.662 345.854L134.147 345.186L136.414 343.434H137.234V352ZM144.195 343.434L141.002 352H140.029L143.223 343.434H144.195ZM150.535 352H144.904V351.162L147.16 348.895C147.848 348.199 148.301 347.703 148.52 347.406C148.738 347.109 148.902 346.82 149.012 346.539C149.121 346.258 149.176 345.955 149.176 345.631C149.176 345.174 149.037 344.812 148.76 344.547C148.483 344.277 148.098 344.143 147.606 344.143C147.25 344.143 146.912 344.201 146.592 344.318C146.276 344.436 145.922 344.648 145.531 344.957L145.016 344.295C145.805 343.639 146.664 343.311 147.594 343.311C148.399 343.311 149.029 343.518 149.486 343.932C149.943 344.342 150.172 344.895 150.172 345.59C150.172 346.133 150.02 346.67 149.715 347.201C149.41 347.732 148.84 348.404 148.004 349.217L146.129 351.051V351.098H150.535V352ZM157.807 350.031H156.535V352H155.604V350.031H151.438V349.182L155.504 343.387H156.535V349.146H157.807V350.031ZM155.604 349.146V346.299C155.604 345.74 155.623 345.109 155.662 344.406H155.615C155.428 344.781 155.252 345.092 155.088 345.338L152.41 349.146H155.604Z"
          fill="black" fill-opacity="0.7"/>
    <path d="M200.192 330V336" stroke="#D3D3D4"/>
    <path d="M190.518 347.705C190.518 349.186 190.284 350.291 189.815 351.021C189.351 351.752 188.638 352.117 187.677 352.117C186.755 352.117 186.054 351.744 185.573 350.998C185.093 350.248 184.852 349.15 184.852 347.705C184.852 346.213 185.085 345.105 185.55 344.383C186.015 343.66 186.724 343.299 187.677 343.299C188.606 343.299 189.311 343.676 189.792 344.43C190.276 345.184 190.518 346.275 190.518 347.705ZM185.837 347.705C185.837 348.951 185.983 349.859 186.276 350.43C186.569 350.996 187.036 351.279 187.677 351.279C188.325 351.279 188.794 350.992 189.083 350.418C189.376 349.84 189.522 348.936 189.522 347.705C189.522 346.475 189.376 345.574 189.083 345.004C188.794 344.43 188.325 344.143 187.677 344.143C187.036 344.143 186.569 344.426 186.276 344.992C185.983 345.555 185.837 346.459 185.837 347.705ZM197.339 352H191.708V351.162L193.964 348.895C194.651 348.199 195.104 347.703 195.323 347.406C195.542 347.109 195.706 346.82 195.815 346.539C195.925 346.258 195.979 345.955 195.979 345.631C195.979 345.174 195.841 344.812 195.563 344.547C195.286 344.277 194.901 344.143 194.409 344.143C194.054 344.143 193.716 344.201 193.395 344.318C193.079 344.436 192.726 344.648 192.335 344.957L191.819 344.295C192.608 343.639 193.468 343.311 194.397 343.311C195.202 343.311 195.833 343.518 196.29 343.932C196.747 344.342 196.976 344.895 196.976 345.59C196.976 346.133 196.823 346.67 196.518 347.201C196.214 347.732 195.643 348.404 194.808 349.217L192.933 351.051V351.098H197.339V352ZM202.272 343.434L199.079 352H198.106L201.3 343.434H202.272ZM208.612 352H202.981V351.162L205.237 348.895C205.925 348.199 206.378 347.703 206.597 347.406C206.815 347.109 206.979 346.82 207.089 346.539C207.198 346.258 207.253 345.955 207.253 345.631C207.253 345.174 207.114 344.812 206.837 344.547C206.56 344.277 206.175 344.143 205.683 344.143C205.327 344.143 204.989 344.201 204.669 344.318C204.352 344.436 203.999 344.648 203.608 344.957L203.093 344.295C203.882 343.639 204.741 343.311 205.671 343.311C206.476 343.311 207.106 343.518 207.563 343.932C208.02 344.342 208.249 344.895 208.249 345.59C208.249 346.133 208.097 346.67 207.792 347.201C207.487 347.732 206.917 348.404 206.081 349.217L204.206 351.051V351.098H208.612V352ZM215.884 350.031H214.612V352H213.681V350.031H209.515V349.182L213.581 343.387H214.612V349.146H215.884V350.031ZM213.681 349.146V346.299C213.681 345.74 213.7 345.109 213.739 344.406H213.692C213.505 344.781 213.329 345.092 213.165 345.338L210.487 349.146H213.681Z"
          fill="black" fill-opacity="0.7"/>
    <path d="M258.269 330V336" stroke="#D3D3D4"/>
    <path d="M248.595 347.705C248.595 349.186 248.361 350.291 247.892 351.021C247.427 351.752 246.715 352.117 245.754 352.117C244.832 352.117 244.131 351.744 243.65 350.998C243.17 350.248 242.929 349.15 242.929 347.705C242.929 346.213 243.162 345.105 243.627 344.383C244.091 343.66 244.8 343.299 245.754 343.299C246.683 343.299 247.388 343.676 247.869 344.43C248.353 345.184 248.595 346.275 248.595 347.705ZM243.914 347.705C243.914 348.951 244.06 349.859 244.353 350.43C244.646 350.996 245.113 351.279 245.754 351.279C246.402 351.279 246.871 350.992 247.16 350.418C247.453 349.84 247.599 348.936 247.599 347.705C247.599 346.475 247.453 345.574 247.16 345.004C246.871 344.43 246.402 344.143 245.754 344.143C245.113 344.143 244.646 344.426 244.353 344.992C244.06 345.555 243.914 346.459 243.914 347.705ZM255.093 345.449C255.093 345.996 254.939 346.443 254.631 346.791C254.326 347.139 253.892 347.371 253.33 347.488V347.535C254.017 347.621 254.527 347.84 254.859 348.191C255.191 348.543 255.357 349.004 255.357 349.574C255.357 350.391 255.074 351.02 254.508 351.461C253.941 351.898 253.136 352.117 252.093 352.117C251.64 352.117 251.224 352.082 250.845 352.012C250.47 351.945 250.105 351.826 249.75 351.654V350.729C250.121 350.912 250.515 351.053 250.933 351.15C251.355 351.244 251.754 351.291 252.129 351.291C253.609 351.291 254.349 350.711 254.349 349.551C254.349 348.512 253.533 347.992 251.9 347.992H251.056V347.154H251.912C252.58 347.154 253.109 347.008 253.5 346.715C253.89 346.418 254.086 346.008 254.086 345.484C254.086 345.066 253.941 344.738 253.652 344.5C253.367 344.262 252.978 344.143 252.486 344.143C252.111 344.143 251.758 344.193 251.425 344.295C251.093 344.396 250.715 344.584 250.289 344.857L249.797 344.201C250.148 343.924 250.552 343.707 251.009 343.551C251.47 343.391 251.955 343.311 252.463 343.311C253.295 343.311 253.941 343.502 254.402 343.885C254.863 344.264 255.093 344.785 255.093 345.449ZM260.349 343.434L257.156 352H256.183L259.377 343.434H260.349ZM266.689 352H261.058V351.162L263.314 348.895C264.002 348.199 264.455 347.703 264.674 347.406C264.892 347.109 265.056 346.82 265.166 346.539C265.275 346.258 265.33 345.955 265.33 345.631C265.33 345.174 265.191 344.812 264.914 344.547C264.636 344.277 264.252 344.143 263.759 344.143C263.404 344.143 263.066 344.201 262.746 344.318C262.429 344.436 262.076 344.648 261.685 344.957L261.17 344.295C261.959 343.639 262.818 343.311 263.748 343.311C264.552 343.311 265.183 343.518 265.64 343.932C266.097 344.342 266.326 344.895 266.326 345.59C266.326 346.133 266.174 346.67 265.869 347.201C265.564 347.732 264.994 348.404 264.158 349.217L262.283 351.051V351.098H266.689V352ZM273.961 350.031H272.689V352H271.758V350.031H267.591V349.182L271.658 343.387H272.689V349.146H273.961V350.031ZM271.758 349.146V346.299C271.758 345.74 271.777 345.109 271.816 344.406H271.769C271.582 344.781 271.406 345.092 271.242 345.338L268.564 349.146H271.758Z"
          fill="black" fill-opacity="0.7"/>
    <path d="M316.346 330V336" stroke="#D3D3D4"/>
    <path d="M306.672 347.705C306.672 349.186 306.438 350.291 305.969 351.021C305.504 351.752 304.792 352.117 303.831 352.117C302.909 352.117 302.208 351.744 301.727 350.998C301.247 350.248 301.006 349.15 301.006 347.705C301.006 346.213 301.239 345.105 301.704 344.383C302.168 343.66 302.877 343.299 303.831 343.299C304.76 343.299 305.465 343.676 305.946 344.43C306.43 345.184 306.672 346.275 306.672 347.705ZM301.991 347.705C301.991 348.951 302.137 349.859 302.43 350.43C302.723 350.996 303.19 351.279 303.831 351.279C304.479 351.279 304.948 350.992 305.237 350.418C305.53 349.84 305.676 348.936 305.676 347.705C305.676 346.475 305.53 345.574 305.237 345.004C304.948 344.43 304.479 344.143 303.831 344.143C303.19 344.143 302.723 344.426 302.43 344.992C302.137 345.555 301.991 346.459 301.991 347.705ZM313.897 350.031H312.625V352H311.694V350.031H307.528V349.182L311.594 343.387H312.625V349.146H313.897V350.031ZM311.694 349.146V346.299C311.694 345.74 311.713 345.109 311.752 344.406H311.706C311.518 344.781 311.342 345.092 311.178 345.338L308.5 349.146H311.694ZM318.426 343.434L315.233 352H314.26L317.454 343.434H318.426ZM324.766 352H319.135V351.162L321.391 348.895C322.079 348.199 322.532 347.703 322.75 347.406C322.969 347.109 323.133 346.82 323.243 346.539C323.352 346.258 323.407 345.955 323.407 345.631C323.407 345.174 323.268 344.812 322.991 344.547C322.713 344.277 322.329 344.143 321.836 344.143C321.481 344.143 321.143 344.201 320.823 344.318C320.506 344.436 320.153 344.648 319.762 344.957L319.247 344.295C320.036 343.639 320.895 343.311 321.825 343.311C322.629 343.311 323.26 343.518 323.717 343.932C324.174 344.342 324.403 344.895 324.403 345.59C324.403 346.133 324.25 346.67 323.946 347.201C323.641 347.732 323.071 348.404 322.235 349.217L320.36 351.051V351.098H324.766V352ZM332.038 350.031H330.766V352H329.834V350.031H325.668V349.182L329.735 343.387H330.766V349.146H332.038V350.031ZM329.834 349.146V346.299C329.834 345.74 329.854 345.109 329.893 344.406H329.846C329.659 344.781 329.483 345.092 329.319 345.338L326.641 349.146H329.834Z"
          fill="black" fill-opacity="0.7"/>
    <path d="M374.423 330V336" stroke="#D3D3D4"/>
    <path d="M364.749 347.705C364.749 349.186 364.515 350.291 364.046 351.021C363.581 351.752 362.868 352.117 361.907 352.117C360.986 352.117 360.284 351.744 359.804 350.998C359.323 350.248 359.083 349.15 359.083 347.705C359.083 346.213 359.316 345.105 359.781 344.383C360.245 343.66 360.954 343.299 361.907 343.299C362.837 343.299 363.542 343.676 364.023 344.43C364.507 345.184 364.749 346.275 364.749 347.705ZM360.068 347.705C360.068 348.951 360.214 349.859 360.507 350.43C360.8 350.996 361.267 351.279 361.907 351.279C362.556 351.279 363.025 350.992 363.314 350.418C363.607 349.84 363.753 348.936 363.753 347.705C363.753 346.475 363.607 345.574 363.314 345.004C363.025 344.43 362.556 344.143 361.907 344.143C361.267 344.143 360.8 344.426 360.507 344.992C360.214 345.555 360.068 346.459 360.068 347.705ZM368.616 346.768C369.519 346.768 370.228 346.992 370.743 347.441C371.263 347.887 371.523 348.498 371.523 349.275C371.523 350.162 371.24 350.857 370.673 351.361C370.111 351.865 369.333 352.117 368.341 352.117C367.376 352.117 366.64 351.963 366.132 351.654V350.717C366.406 350.893 366.745 351.031 367.152 351.133C367.558 351.23 367.958 351.279 368.353 351.279C369.04 351.279 369.573 351.117 369.952 350.793C370.335 350.469 370.527 350 370.527 349.387C370.527 348.191 369.794 347.594 368.329 347.594C367.958 347.594 367.462 347.65 366.841 347.764L366.337 347.441L366.659 343.434H370.919V344.33H367.491L367.275 346.902C367.724 346.812 368.171 346.768 368.616 346.768ZM376.503 343.434L373.31 352H372.337L375.531 343.434H376.503ZM382.843 352H377.212V351.162L379.468 348.895C380.156 348.199 380.609 347.703 380.827 347.406C381.046 347.109 381.21 346.82 381.32 346.539C381.429 346.258 381.484 345.955 381.484 345.631C381.484 345.174 381.345 344.812 381.068 344.547C380.79 344.277 380.406 344.143 379.913 344.143C379.558 344.143 379.22 344.201 378.9 344.318C378.583 344.436 378.23 344.648 377.839 344.957L377.323 344.295C378.113 343.639 378.972 343.311 379.902 343.311C380.706 343.311 381.337 343.518 381.794 343.932C382.251 344.342 382.48 344.895 382.48 345.59C382.48 346.133 382.327 346.67 382.023 347.201C381.718 347.732 381.148 348.404 380.312 349.217L378.437 351.051V351.098H382.843V352ZM390.115 350.031H388.843V352H387.911V350.031H383.745V349.182L387.812 343.387H388.843V349.146H390.115V350.031ZM387.911 349.146V346.299C387.911 345.74 387.931 345.109 387.97 344.406H387.923C387.736 344.781 387.56 345.092 387.396 345.338L384.718 349.146H387.911Z"
          fill="black" fill-opacity="0.7"/>
    <path d="M432.5 330V336" stroke="#D3D3D4"/>
    <path d="M422.826 347.705C422.826 349.186 422.592 350.291 422.123 351.021C421.658 351.752 420.945 352.117 419.984 352.117C419.063 352.117 418.361 351.744 417.881 350.998C417.4 350.248 417.16 349.15 417.16 347.705C417.16 346.213 417.393 345.105 417.857 344.383C418.322 343.66 419.031 343.299 419.984 343.299C420.914 343.299 421.619 343.676 422.1 344.43C422.584 345.184 422.826 346.275 422.826 347.705ZM418.145 347.705C418.145 348.951 418.291 349.859 418.584 350.43C418.877 350.996 419.344 351.279 419.984 351.279C420.633 351.279 421.102 350.992 421.391 350.418C421.684 349.84 421.83 348.936 421.83 347.705C421.83 346.475 421.684 345.574 421.391 345.004C421.102 344.43 420.633 344.143 419.984 344.143C419.344 344.143 418.877 344.426 418.584 344.992C418.291 345.555 418.145 346.459 418.145 347.705ZM424.115 348.338C424.115 346.654 424.441 345.396 425.094 344.564C425.75 343.729 426.719 343.311 428 343.311C428.441 343.311 428.789 343.348 429.043 343.422V344.26C428.742 344.162 428.398 344.113 428.012 344.113C427.094 344.113 426.393 344.4 425.908 344.975C425.424 345.545 425.158 346.443 425.111 347.67H425.182C425.611 346.998 426.291 346.662 427.221 346.662C427.99 346.662 428.596 346.895 429.037 347.359C429.482 347.824 429.705 348.455 429.705 349.252C429.705 350.143 429.461 350.844 428.973 351.355C428.488 351.863 427.832 352.117 427.004 352.117C426.117 352.117 425.414 351.785 424.895 351.121C424.375 350.453 424.115 349.525 424.115 348.338ZM426.992 351.291C427.547 351.291 427.977 351.117 428.281 350.77C428.59 350.418 428.744 349.912 428.744 349.252C428.744 348.686 428.602 348.24 428.316 347.916C428.031 347.592 427.605 347.43 427.039 347.43C426.688 347.43 426.365 347.502 426.072 347.646C425.779 347.791 425.545 347.99 425.369 348.244C425.197 348.498 425.111 348.762 425.111 349.035C425.111 349.438 425.189 349.812 425.346 350.16C425.502 350.508 425.723 350.783 426.008 350.986C426.297 351.189 426.625 351.291 426.992 351.291ZM434.58 343.434L431.387 352H430.414L433.607 343.434H434.58ZM440.92 352H435.289V351.162L437.545 348.895C438.232 348.199 438.686 347.703 438.904 347.406C439.123 347.109 439.287 346.82 439.397 346.539C439.506 346.258 439.561 345.955 439.561 345.631C439.561 345.174 439.422 344.812 439.145 344.547C438.867 344.277 438.482 344.143 437.99 344.143C437.635 344.143 437.297 344.201 436.977 344.318C436.66 344.436 436.307 344.648 435.916 344.957L435.4 344.295C436.189 343.639 437.049 343.311 437.979 343.311C438.783 343.311 439.414 343.518 439.871 343.932C440.328 344.342 440.557 344.895 440.557 345.59C440.557 346.133 440.404 346.67 440.1 347.201C439.795 347.732 439.225 348.404 438.389 349.217L436.514 351.051V351.098H440.92V352ZM448.191 350.031H446.92V352H445.988V350.031H441.822V349.182L445.889 343.387H446.92V349.146H448.191V350.031ZM445.988 349.146V346.299C445.988 345.74 446.008 345.109 446.047 344.406H446C445.813 344.781 445.637 345.092 445.473 345.338L442.795 349.146H445.988Z"
          fill="black" fill-opacity="0.7"/>
    <path d="M490.577 330V336" stroke="#D3D3D4"/>
    <path d="M480.903 347.705C480.903 349.186 480.669 350.291 480.2 351.021C479.735 351.752 479.022 352.117 478.061 352.117C477.139 352.117 476.438 351.744 475.958 350.998C475.477 350.248 475.237 349.15 475.237 347.705C475.237 346.213 475.47 345.105 475.934 344.383C476.399 343.66 477.108 343.299 478.061 343.299C478.991 343.299 479.696 343.676 480.177 344.43C480.661 345.184 480.903 346.275 480.903 347.705ZM476.221 347.705C476.221 348.951 476.368 349.859 476.661 350.43C476.954 350.996 477.421 351.279 478.061 351.279C478.71 351.279 479.179 350.992 479.468 350.418C479.761 349.84 479.907 348.936 479.907 347.705C479.907 346.475 479.761 345.574 479.468 345.004C479.179 344.43 478.71 344.143 478.061 344.143C477.421 344.143 476.954 344.426 476.661 344.992C476.368 345.555 476.221 346.459 476.221 347.705ZM483.177 352L486.727 344.33H482.057V343.434H487.759V344.213L484.255 352H483.177ZM492.657 343.434L489.464 352H488.491L491.684 343.434H492.657ZM498.997 352H493.366V351.162L495.622 348.895C496.309 348.199 496.763 347.703 496.981 347.406C497.2 347.109 497.364 346.82 497.473 346.539C497.583 346.258 497.638 345.955 497.638 345.631C497.638 345.174 497.499 344.812 497.221 344.547C496.944 344.277 496.559 344.143 496.067 344.143C495.712 344.143 495.374 344.201 495.054 344.318C494.737 344.436 494.384 344.648 493.993 344.957L493.477 344.295C494.266 343.639 495.126 343.311 496.055 343.311C496.86 343.311 497.491 343.518 497.948 343.932C498.405 344.342 498.634 344.895 498.634 345.59C498.634 346.133 498.481 346.67 498.177 347.201C497.872 347.732 497.302 348.404 496.466 349.217L494.591 351.051V351.098H498.997V352ZM506.268 350.031H504.997V352H504.065V350.031H499.899V349.182L503.966 343.387H504.997V349.146H506.268V350.031ZM504.065 349.146V346.299C504.065 345.74 504.085 345.109 504.124 344.406H504.077C503.889 344.781 503.714 345.092 503.55 345.338L500.872 349.146H504.065Z"
          fill="black" fill-opacity="0.7"/>
    <path d="M548.654 330V336" stroke="#D3D3D4"/>
    <path d="M538.98 347.705C538.98 349.186 538.746 350.291 538.277 351.021C537.812 351.752 537.099 352.117 536.138 352.117C535.216 352.117 534.515 351.744 534.035 350.998C533.554 350.248 533.314 349.15 533.314 347.705C533.314 346.213 533.546 345.105 534.011 344.383C534.476 343.66 535.185 343.299 536.138 343.299C537.068 343.299 537.773 343.676 538.254 344.43C538.738 345.184 538.98 346.275 538.98 347.705ZM534.298 347.705C534.298 348.951 534.445 349.859 534.738 350.43C535.031 350.996 535.498 351.279 536.138 351.279C536.787 351.279 537.255 350.992 537.545 350.418C537.837 349.84 537.984 348.936 537.984 347.705C537.984 346.475 537.837 345.574 537.545 345.004C537.255 344.43 536.787 344.143 536.138 344.143C535.498 344.143 535.031 344.426 534.738 344.992C534.445 345.555 534.298 346.459 534.298 347.705ZM543.005 343.311C543.787 343.311 544.406 343.492 544.863 343.855C545.32 344.219 545.548 344.721 545.548 345.361C545.548 345.783 545.418 346.168 545.156 346.516C544.894 346.863 544.476 347.18 543.902 347.465C544.597 347.797 545.091 348.146 545.384 348.514C545.677 348.877 545.824 349.299 545.824 349.779C545.824 350.49 545.576 351.059 545.08 351.484C544.584 351.906 543.904 352.117 543.041 352.117C542.127 352.117 541.423 351.918 540.931 351.52C540.439 351.117 540.193 350.549 540.193 349.814C540.193 348.834 540.791 348.07 541.986 347.523C541.447 347.219 541.06 346.891 540.826 346.539C540.591 346.184 540.474 345.787 540.474 345.35C540.474 344.729 540.703 344.234 541.16 343.867C541.621 343.496 542.236 343.311 543.005 343.311ZM541.154 349.838C541.154 350.307 541.316 350.672 541.64 350.934C541.968 351.195 542.427 351.326 543.017 351.326C543.599 351.326 544.052 351.189 544.377 350.916C544.701 350.643 544.863 350.268 544.863 349.791C544.863 349.412 544.711 349.076 544.406 348.783C544.101 348.486 543.57 348.199 542.812 347.922C542.23 348.172 541.808 348.449 541.546 348.754C541.285 349.055 541.154 349.416 541.154 349.838ZM542.994 344.102C542.505 344.102 542.123 344.219 541.845 344.453C541.568 344.688 541.429 345 541.429 345.391C541.429 345.75 541.545 346.059 541.775 346.316C542.005 346.574 542.431 346.832 543.052 347.09C543.611 346.855 544.005 346.604 544.236 346.334C544.47 346.064 544.587 345.75 544.587 345.391C544.587 344.996 544.445 344.684 544.16 344.453C543.879 344.219 543.49 344.102 542.994 344.102ZM550.734 343.434L547.541 352H546.568L549.761 343.434H550.734ZM557.074 352H551.443V351.162L553.699 348.895C554.386 348.199 554.839 347.703 555.058 347.406C555.277 347.109 555.441 346.82 555.55 346.539C555.66 346.258 555.714 345.955 555.714 345.631C555.714 345.174 555.576 344.812 555.298 344.547C555.021 344.277 554.636 344.143 554.144 344.143C553.789 344.143 553.451 344.201 553.13 344.318C552.814 344.436 552.461 344.648 552.07 344.957L551.554 344.295C552.343 343.639 553.203 343.311 554.132 343.311C554.937 343.311 555.568 343.518 556.025 343.932C556.482 344.342 556.711 344.895 556.711 345.59C556.711 346.133 556.558 346.67 556.254 347.201C555.949 347.732 555.379 348.404 554.543 349.217L552.668 351.051V351.098H557.074V352ZM564.345 350.031H563.074V352H562.142V350.031H557.976V349.182L562.043 343.387H563.074V349.146H564.345V350.031ZM562.142 349.146V346.299C562.142 345.74 562.162 345.109 562.201 344.406H562.154C561.966 344.781 561.791 345.092 561.627 345.338L558.949 349.146H562.142Z"
          fill="black" fill-opacity="0.7"/>
    <path d="M606.731 330V336" stroke="#D3D3D4"/>
    <path d="M597.057 347.705C597.057 349.186 596.823 350.291 596.354 351.021C595.889 351.752 595.176 352.117 594.215 352.117C593.293 352.117 592.592 351.744 592.112 350.998C591.631 350.248 591.391 349.15 591.391 347.705C591.391 346.213 591.623 345.105 592.088 344.383C592.553 343.66 593.262 343.299 594.215 343.299C595.145 343.299 595.85 343.676 596.33 344.43C596.815 345.184 597.057 346.275 597.057 347.705ZM592.375 347.705C592.375 348.951 592.522 349.859 592.815 350.43C593.108 350.996 593.575 351.279 594.215 351.279C594.864 351.279 595.332 350.992 595.621 350.418C595.914 349.84 596.061 348.936 596.061 347.705C596.061 346.475 595.914 345.574 595.621 345.004C595.332 344.43 594.864 344.143 594.215 344.143C593.575 344.143 593.108 344.426 592.815 344.992C592.522 345.555 592.375 346.459 592.375 347.705ZM603.877 347.09C603.877 350.441 602.58 352.117 599.987 352.117C599.534 352.117 599.174 352.078 598.909 352V351.162C599.221 351.264 599.577 351.314 599.975 351.314C600.912 351.314 601.62 351.025 602.096 350.447C602.577 349.865 602.838 348.975 602.881 347.775H602.811C602.596 348.1 602.311 348.348 601.955 348.52C601.6 348.688 601.2 348.771 600.754 348.771C599.996 348.771 599.395 348.545 598.95 348.092C598.504 347.639 598.282 347.006 598.282 346.193C598.282 345.303 598.53 344.6 599.026 344.084C599.526 343.568 600.182 343.311 600.995 343.311C601.577 343.311 602.084 343.461 602.518 343.762C602.955 344.059 603.291 344.494 603.526 345.068C603.76 345.639 603.877 346.312 603.877 347.09ZM600.995 344.143C600.436 344.143 600.004 344.322 599.7 344.682C599.395 345.041 599.243 345.541 599.243 346.182C599.243 346.744 599.383 347.188 599.664 347.512C599.946 347.832 600.373 347.992 600.948 347.992C601.303 347.992 601.629 347.92 601.926 347.775C602.227 347.631 602.463 347.434 602.635 347.184C602.807 346.934 602.893 346.672 602.893 346.398C602.893 345.988 602.813 345.609 602.653 345.262C602.493 344.914 602.268 344.641 601.979 344.441C601.694 344.242 601.366 344.143 600.995 344.143ZM608.811 343.434L605.618 352H604.645L607.838 343.434H608.811ZM615.151 352H609.52V351.162L611.776 348.895C612.463 348.199 612.916 347.703 613.135 347.406C613.354 347.109 613.518 346.82 613.627 346.539C613.737 346.258 613.791 345.955 613.791 345.631C613.791 345.174 613.653 344.812 613.375 344.547C613.098 344.277 612.713 344.143 612.221 344.143C611.866 344.143 611.528 344.201 611.207 344.318C610.891 344.436 610.537 344.648 610.147 344.957L609.631 344.295C610.42 343.639 611.28 343.311 612.209 343.311C613.014 343.311 613.645 343.518 614.102 343.932C614.559 344.342 614.787 344.895 614.787 345.59C614.787 346.133 614.635 346.67 614.33 347.201C614.026 347.732 613.455 348.404 612.62 349.217L610.745 351.051V351.098H615.151V352ZM622.422 350.031H621.151V352H620.219V350.031H616.053V349.182L620.12 343.387H621.151V349.146H622.422V350.031ZM620.219 349.146V346.299C620.219 345.74 620.239 345.109 620.278 344.406H620.231C620.043 344.781 619.868 345.092 619.703 345.338L617.026 349.146H620.219Z"
          fill="black" fill-opacity="0.7"/>
    <path d="M664.808 330V336" stroke="#D3D3D4"/>
    <path d="M653.06 352H652.11V345.895C652.11 345.387 652.126 344.906 652.157 344.453C652.075 344.535 651.984 344.621 651.882 344.711C651.78 344.801 651.316 345.182 650.487 345.854L649.972 345.186L652.239 343.434H653.06V352ZM662.001 347.705C662.001 349.186 661.767 350.291 661.298 351.021C660.833 351.752 660.12 352.117 659.159 352.117C658.237 352.117 657.536 351.744 657.056 350.998C656.575 350.248 656.335 349.15 656.335 347.705C656.335 346.213 656.568 345.105 657.032 344.383C657.497 343.66 658.206 343.299 659.159 343.299C660.089 343.299 660.794 343.676 661.275 344.43C661.759 345.184 662.001 346.275 662.001 347.705ZM657.319 347.705C657.319 348.951 657.466 349.859 657.759 350.43C658.052 350.996 658.519 351.279 659.159 351.279C659.808 351.279 660.277 350.992 660.566 350.418C660.859 349.84 661.005 348.936 661.005 347.705C661.005 346.475 660.859 345.574 660.566 345.004C660.277 344.43 659.808 344.143 659.159 344.143C658.519 344.143 658.052 344.426 657.759 344.992C657.466 345.555 657.319 346.459 657.319 347.705ZM666.888 343.434L663.694 352H662.722L665.915 343.434H666.888ZM673.228 352H667.597V351.162L669.853 348.895C670.54 348.199 670.993 347.703 671.212 347.406C671.431 347.109 671.595 346.82 671.704 346.539C671.814 346.258 671.868 345.955 671.868 345.631C671.868 345.174 671.73 344.812 671.452 344.547C671.175 344.277 670.79 344.143 670.298 344.143C669.943 344.143 669.605 344.201 669.284 344.318C668.968 344.436 668.614 344.648 668.224 344.957L667.708 344.295C668.497 343.639 669.357 343.311 670.286 343.311C671.091 343.311 671.722 343.518 672.179 343.932C672.636 344.342 672.864 344.895 672.864 345.59C672.864 346.133 672.712 346.67 672.407 347.201C672.103 347.732 671.532 348.404 670.696 349.217L668.821 351.051V351.098H673.228V352ZM680.499 350.031H679.228V352H678.296V350.031H674.13V349.182L678.196 343.387H679.228V349.146H680.499V350.031ZM678.296 349.146V346.299C678.296 345.74 678.316 345.109 678.355 344.406H678.308C678.12 344.781 677.944 345.092 677.78 345.338L675.103 349.146H678.296Z"
          fill="black" fill-opacity="0.7"/>
    <path d="M722.885 330V336" stroke="#D3D3D4"/>
    <path d="M711.137 352H710.187V345.895C710.187 345.387 710.203 344.906 710.234 344.453C710.152 344.535 710.06 344.621 709.959 344.711C709.857 344.801 709.392 345.182 708.564 345.854L708.049 345.186L710.316 343.434H711.137V352ZM718.004 352H717.055V345.895C717.055 345.387 717.07 344.906 717.101 344.453C717.019 344.535 716.928 344.621 716.826 344.711C716.725 344.801 716.26 345.182 715.432 345.854L714.916 345.186L717.183 343.434H718.004V352ZM724.965 343.434L721.771 352H720.799L723.992 343.434H724.965ZM731.305 352H725.674V351.162L727.93 348.895C728.617 348.199 729.07 347.703 729.289 347.406C729.508 347.109 729.672 346.82 729.781 346.539C729.891 346.258 729.945 345.955 729.945 345.631C729.945 345.174 729.807 344.812 729.529 344.547C729.252 344.277 728.867 344.143 728.375 344.143C728.019 344.143 727.682 344.201 727.361 344.318C727.045 344.436 726.691 344.648 726.301 344.957L725.785 344.295C726.574 343.639 727.433 343.311 728.363 343.311C729.168 343.311 729.799 343.518 730.256 343.932C730.713 344.342 730.941 344.895 730.941 345.59C730.941 346.133 730.789 346.67 730.484 347.201C730.18 347.732 729.609 348.404 728.773 349.217L726.898 351.051V351.098H731.305V352ZM738.576 350.031H737.305V352H736.373V350.031H732.207V349.182L736.273 343.387H737.305V349.146H738.576V350.031ZM736.373 349.146V346.299C736.373 345.74 736.392 345.109 736.432 344.406H736.385C736.197 344.781 736.021 345.092 735.857 345.338L733.18 349.146H736.373Z"
          fill="black" fill-opacity="0.7"/>
    <path d="M780.962 330V336" stroke="#D3D3D4"/>
    <path d="M769.214 352H768.264V345.895C768.264 345.387 768.28 344.906 768.311 344.453C768.229 344.535 768.137 344.621 768.036 344.711C767.934 344.801 767.469 345.182 766.641 345.854L766.126 345.186L768.393 343.434H769.214V352ZM778.108 352H772.477V351.162L774.733 348.895C775.421 348.199 775.874 347.703 776.092 347.406C776.311 347.109 776.475 346.82 776.585 346.539C776.694 346.258 776.749 345.955 776.749 345.631C776.749 345.174 776.61 344.812 776.333 344.547C776.055 344.277 775.671 344.143 775.178 344.143C774.823 344.143 774.485 344.201 774.165 344.318C773.848 344.436 773.495 344.648 773.104 344.957L772.589 344.295C773.378 343.639 774.237 343.311 775.167 343.311C775.971 343.311 776.602 343.518 777.059 343.932C777.516 344.342 777.745 344.895 777.745 345.59C777.745 346.133 777.592 346.67 777.288 347.201C776.983 347.732 776.413 348.404 775.577 349.217L773.702 351.051V351.098H778.108V352ZM783.042 343.434L779.848 352H778.876L782.069 343.434H783.042ZM789.381 352H783.751V351.162L786.006 348.895C786.694 348.199 787.147 347.703 787.366 347.406C787.585 347.109 787.749 346.82 787.858 346.539C787.967 346.258 788.022 345.955 788.022 345.631C788.022 345.174 787.883 344.812 787.606 344.547C787.329 344.277 786.944 344.143 786.452 344.143C786.096 344.143 785.758 344.201 785.438 344.318C785.122 344.436 784.768 344.648 784.378 344.957L783.862 344.295C784.651 343.639 785.51 343.311 786.44 343.311C787.245 343.311 787.876 343.518 788.333 343.932C788.79 344.342 789.018 344.895 789.018 345.59C789.018 346.133 788.866 346.67 788.561 347.201C788.256 347.732 787.686 348.404 786.85 349.217L784.975 351.051V351.098H789.381V352ZM796.653 350.031H795.381V352H794.45V350.031H790.284V349.182L794.35 343.387H795.381V349.146H796.653V350.031ZM794.45 349.146V346.299C794.45 345.74 794.469 345.109 794.508 344.406H794.462C794.274 344.781 794.098 345.092 793.934 345.338L791.256 349.146H794.45Z"
          fill="black" fill-opacity="0.7"/>
    <path d="M810 46L747 61.8072L684.778 49.3632L621.778 55.0807L560.333 79.9686H496.556L432 121" stroke="#9C4FFF" stroke-width="3"
          stroke-dasharray="6 6"/>
    <path d="M77.5903 324.222L54 321.843V330H432V122L408.41 128.797L378.159 186.915L348.74 196.431L331.255 234.157L299.062 245.373L282.41 278.34L234.674 302.81L197.485 275.281L141.978 302.81L108.674 293.294L77.5903 324.222Z"
          fill="url(#paint0_linear_1_1380)"/>
    <path d="M54 321.624L77.5903 324L108.674 293.106L141.978 302.612L197.485 275.113L234.674 302.612L282.41 278.168L299.062 245.237L331.256 234.034L348.74 196.35L378.159 186.844L408.41 128.79L432 122"
          stroke="#1873EB" stroke-width="3"/>
    <path d="M432 329.5V45.5" stroke="#4D4D4D" stroke-dasharray="6 6"/>
    <defs>
        <linearGradient id="paint0_linear_1_1380" x1="243" y1="122" x2="243" y2="330" gradientUnits="userSpaceOnUse">
            <stop stop-color="#1873EB" stop-opacity="0.35"/>
            <stop offset="1" stop-color="#1873EB" stop-opacity="0"/>
        </linearGradient>
        <clipPath id="clip0_1_1380">
            <rect width="103" height="24" fill="white" transform="translate(581)"/>
        </clipPath>
        <clipPath id="clip1_1_1380">
            <rect width="110" height="24" fill="white" transform="translate(700)"/>
        </clipPath>
    </defs>
</svg>
