<svg width="28" height="18" viewBox="0 0 28 18" fill="none" xmlns="http://www.w3.org/2000/svg">
<rect width="28" height="18" rx="3" fill="#8F8783" fill-opacity="0.48"/>
<path d="M11.9082 13L11.124 10.8193H8.12158L7.35352 13H6L8.93799 5.11523H10.3345L13.2725 13H11.9082ZM10.7856 9.71289L10.0498 7.5752C9.99609 7.43197 9.9209 7.20638 9.82422 6.89844C9.73112 6.59049 9.66667 6.36491 9.63086 6.22168C9.53418 6.66211 9.39274 7.14372 9.20654 7.6665L8.49756 9.71289H10.7856ZM20.6953 8.99854C20.6953 10.2948 20.3354 11.2866 19.6157 11.9741C18.896 12.658 17.8594 13 16.5059 13H14.3091V5.14746H16.7368C17.9865 5.14746 18.9587 5.48405 19.6533 6.15723C20.348 6.8304 20.6953 7.77751 20.6953 8.99854ZM19.3418 9.0415C19.3418 7.16162 18.4627 6.22168 16.7046 6.22168H15.5928V11.9204H16.5059C18.3965 11.9204 19.3418 10.9608 19.3418 9.0415Z" fill="white"/>
</svg>
