<svg width="18" height="18" viewBox="0 0 18 18" fill="none" xmlns="http://www.w3.org/2000/svg">
<g filter="url(#filter0_d_1_2268)">
<path d="M13.8402 5.88807L10.2288 9.49951C10.1257 9.60259 9.98832 9.65918 9.84182 9.65918C9.69515 9.65918 9.55784 9.60251 9.45475 9.49951L9.12686 9.17154C9.02386 9.06862 8.96711 8.93114 8.96711 8.78455C8.96711 8.63805 9.02386 8.49594 9.12686 8.39301L11.2337 6.28157L4.54024 6.28157C4.23845 6.28157 4 6.04531 4 5.74344L4 5.27979C4 4.97792 4.23845 4.71784 4.54024 4.71784L11.2576 4.71784L9.12694 2.59461C9.02394 2.49152 8.96719 2.35778 8.96719 2.21119C8.96719 2.06477 9.02394 1.92908 9.12694 1.82608L9.45483 1.49917C9.55792 1.39608 9.69523 1.3399 9.8419 1.3399C9.9884 1.3399 10.1258 1.39681 10.2289 1.4999L13.8402 5.11125C13.9436 5.21466 14.0004 5.35271 14 5.49946C14.0003 5.64669 13.9436 5.78482 13.8402 5.88807Z" fill="#4F4F4F"/>
</g>
<defs>
<filter id="filter0_d_1_2268" x="0" y="0.5" width="18" height="18" filterUnits="userSpaceOnUse" color-interpolation-filters="sRGB">
<feFlood flood-opacity="0" result="BackgroundImageFix"/>
<feColorMatrix in="SourceAlpha" type="matrix" values="0 0 0 0 0 0 0 0 0 0 0 0 0 0 0 0 0 0 127 0" result="hardAlpha"/>
<feOffset dy="4"/>
<feGaussianBlur stdDeviation="2"/>
<feComposite in2="hardAlpha" operator="out"/>
<feColorMatrix type="matrix" values="0 0 0 0 0 0 0 0 0 0 0 0 0 0 0 0 0 0 0.25 0"/>
<feBlend mode="normal" in2="BackgroundImageFix" result="effect1_dropShadow_1_2268"/>
<feBlend mode="normal" in="SourceGraphic" in2="effect1_dropShadow_1_2268" result="shape"/>
</filter>
</defs>
</svg>
